<svg xmlns="http://www.w3.org/2000/svg" version="1.1" xmlns:xlink="http://www.w3.org/1999/xlink" xmlns:svgjs="http://svgjs.com/svgjs" width="512" height="512" x="0" y="0" viewBox="0 0 512 512" style="enable-background:new 0 0 512 512" xml:space="preserve" class=""><g><path fill="#fff480" d="M152.113 332.381 256 142.625l103.887 189.756L256 418.704z" data-original="#fff480" class=""></path><path fill="#ffe566" d="M359.887 332.381 256 142.625v276.079z" data-original="#ffe566" class=""></path><g fill="#ffc24d"><path d="M450.7 349.699v.3c-.601 3.3-2.401 6-5.099 8.401l-180 150c-2.701 2.399-6.301 3.6-9.6 3.6l-30-75.149 30-57.152 65.7-54.6 58.759-18.795zM256 0l30 120.069-30 85.03-65.7 120-56.917 40.854L61.3 349.699c-.601-3.3-.3-6.599 1.5-9.899l180-332.599C245.501 2.401 250.6 0 256 0z" fill="#ffc24d" data-original="#ffc24d" class=""></path></g><path fill="#ffe566" d="M256 379.699V512c-3.3 0-6.899-1.201-9.6-3.6l-180-150c-2.699-2.401-4.499-5.101-5.099-8.401v-.3l129-24.6z" data-original="#ffe566" class=""></path><path fill="#ff9833" d="m450.7 349.699-129-24.6-65.7-120V0c5.4 0 10.499 2.401 13.2 7.202l180 332.599c1.8 3.299 2.1 6.598 1.5 9.898z" data-original="#ff9833" class=""></path></g></svg>