<svg xmlns="http://www.w3.org/2000/svg" version="1.1" xmlns:xlink="http://www.w3.org/1999/xlink" xmlns:svgjs="http://svgjs.com/svgjs" width="512" height="512" x="0" y="0" viewBox="0 0 512.001 512.001" style="enable-background:new 0 0 512 512" xml:space="preserve" class=""><g><path d="M336.45 98.93a12.12 12.12 0 0 1-5.471-1.307c-5.997-3.026-8.405-10.34-5.38-16.335l28.463-56.399a12.167 12.167 0 0 1 7.684-6.261l30.439-8.227c6.497-1.754 13.159 2.083 14.916 8.567 1.75 6.483-2.086 13.161-8.566 14.913l-25.201 6.812-26.016 51.554a12.176 12.176 0 0 1-10.868 6.683zM401.436 189.491a12.113 12.113 0 0 1-7.593-2.667c-5.242-4.198-6.092-11.85-1.892-17.094l42.896-53.587a12.161 12.161 0 0 1 9.493-4.561l45.249-.001c6.718 0 12.161 5.445 12.161 12.161 0 6.716-5.444 12.161-12.161 12.161l-39.405.001-39.247 49.026a12.128 12.128 0 0 1-9.501 4.561zM470.223 269.578c-2.375 0-4.703-.696-6.686-2.003l-53.316-35.099c-5.61-3.694-7.166-11.235-3.472-16.846 3.689-5.611 11.235-7.162 16.845-3.471l50.272 33.095 25.973-.001c6.718 0 12.161 5.445 12.161 12.161 0 6.716-5.444 12.161-12.161 12.161l-29.616.003zM272.639 98.931a12.168 12.168 0 0 1-10.867-6.685l-26.016-51.553-25.197-6.811c-6.484-1.752-10.321-8.429-8.571-14.913 1.754-6.482 8.429-10.331 14.913-8.566l30.439 8.226c3.337.9 6.129 3.177 7.688 6.261l28.463 56.398c3.025 5.995.618 13.309-5.38 16.335a12.116 12.116 0 0 1-5.472 1.308z" style="" fill="#8fa3ad" data-original="#8fa3ad"></path><path d="M350.852 77.964c-12.382-12.382-28.848-19.204-46.357-19.199-36.151 0-65.561 29.409-65.561 65.561 0 8.955 7.26 16.215 16.215 16.215s16.215-7.26 16.215-16.215l66.262-.003c0 8.955 7.26 16.215 16.215 16.215s16.215-7.26 16.215-16.215c0-17.512-6.821-33.976-19.204-46.359z" style="" fill="#455a64" data-original="#455a64"></path><path d="M397.295 143.739c-24.683-27.501-57.639-42.648-92.801-42.648-71.894.003-130.385 64.354-130.385 143.449 0 37.988 13.349 73.786 37.588 100.793 24.683 27.505 57.639 42.651 92.801 42.651 71.894 0 130.385-64.354 130.385-143.449.001-37.987-13.348-73.783-37.588-100.796z" style="" fill="#b61c1c" data-original="#b61c1c" class=""></path><path d="M375.845 143.739c-18.977-27.501-44.315-42.648-71.35-42.648-55.275.003-100.246 64.354-100.246 143.449 0 37.988 10.264 73.786 28.9 100.793 18.977 27.505 44.315 42.651 71.35 42.651 55.275 0 100.246-64.354 100.246-143.449 0-37.987-10.264-73.783-28.9-100.796z" style="" fill="#c52828" data-original="#c52828" class=""></path><path d="M304.499 384.598c-8.955 0-16.215-7.259-16.215-16.215l-.003-247.689c0-8.955 7.26-16.215 16.215-16.215s16.215 7.259 16.215 16.215l.003 247.689c0 8.955-7.26 16.215-16.215 16.215z" style="" fill="#aa1818" data-original="#aa1818" class=""></path><path d="M405.673 409.326 208.099 212.244c9.03-35.977-1.266-73.756-27.743-100.148-24.987-24.912-60.636-35.641-95.37-28.693a12.16 12.16 0 0 0-9.259 8.413 12.158 12.158 0 0 0 3.056 12.126l38.784 38.658-9.937 46.206-46.281 10.015-38.795-38.672a12.178 12.178 0 0 0-12.129-3.02 12.166 12.166 0 0 0-8.384 9.263c-6.892 34.706 3.915 70.303 28.91 95.22 26.476 26.384 64.317 36.606 100.318 27.517l197.58 197.09c10.574 10.538 24.453 15.807 38.336 15.807 13.938 0 27.886-5.312 38.499-15.926 10.273-10.281 15.926-23.934 15.915-38.451-.016-14.488-5.673-28.101-15.926-38.323zm-39.763 52.156c-10.549 0-19.099-8.551-19.099-19.097s8.551-19.097 19.099-19.097 19.099 8.551 19.099 19.097-8.552 19.097-19.099 19.097z" style="" fill="#37474f" data-original="#37474f" class=""></path><path d="M405.684 459.946c-10.614 10.614-24.56 15.926-38.499 15.926-13.884 0-27.762-5.269-38.336-15.807l-197.58-197.089c-36.001 9.09-73.842-1.132-100.318-27.517-16.847-16.792-27.063-38.467-29.944-61.42-3.998 32.224 6.782 64.484 29.944 87.571 26.476 26.385 64.317 36.606 100.318 27.517l197.58 197.09c10.574 10.538 24.453 15.807 38.336 15.807 13.938 0 27.886-5.312 38.499-15.926 10.273-10.281 15.926-23.934 15.915-38.451-.003-4.453-.605-8.808-1.647-13.021-2.343 9.49-7.172 18.218-14.268 25.32z" style="" fill="#263238" data-original="#263238"></path></g></svg>