<svg xmlns="http://www.w3.org/2000/svg" version="1.1" xmlns:xlink="http://www.w3.org/1999/xlink" xmlns:svgjs="http://svgjs.com/svgjs" width="512" height="512" x="0" y="0" viewBox="0 0 512.075 512.075" style="enable-background:new 0 0 512 512" xml:space="preserve" class=""><g><path d="M391 60v287c0 8.399-6.599 15-15 15H15c-8.401 0-15-6.601-15-15V60l30-30h331l30 30z" style="" fill="#edf5ff" data-original="#edf5ff" class=""></path><path d="M391 60v287c0 8.399-6.599 15-15 15H196V30h165l30 30z" style="" fill="#d7e9ff" data-original="#d7e9ff" class=""></path><path d="M225.099 171.799 196 259.1l-.901 2.699c-2.399 7.8-10.8 12.001-18.898 9.3-7.8-2.399-12.001-11.1-9.3-18.9L196 164.9l.901-2.701c2.399-7.8 10.8-11.999 18.898-9.3 7.8 2.401 12.001 11.1 9.3 18.9zM127.006 268.997l-60-45C63.227 221.17 61 216.717 61 212s2.227-9.17 6.006-11.997l60-45c6.621-4.995 16.011-3.647 20.991 3.003 4.98 6.621 3.633 16.025-3.003 20.991L101.005 212l43.989 33.003c6.636 4.966 7.983 14.37 3.003 20.991-4.948 6.623-14.347 7.986-20.991 3.003z" style="" fill="#979fef" data-original="#979fef"></path><path d="M244.003 265.994c-4.98-6.621-3.633-16.025 3.003-20.991L290.995 212l-43.989-33.003c-6.636-4.966-7.983-14.37-3.003-20.991 4.995-6.636 14.385-7.954 20.991-3.003l60 45C328.773 202.83 331 207.283 331 212s-2.227 9.17-6.006 11.997l-60 45c-6.64 4.98-16.04 3.624-20.991-3.003zM225.099 171.799 196 259.1v-94.2l.901-2.701c2.399-7.8 10.8-11.999 18.898-9.3 7.8 2.401 12.001 11.1 9.3 18.9zM301 0h75c8.284 0 15 6.716 15 15v45h-90l-30-30.937L301 0z" style="" fill="#737ee6" data-original="#737ee6" class=""></path><path d="M301 0v60H0V15C0 6.599 6.599 0 15 0h286z" style="" fill="#47568c" data-original="#47568c" class=""></path><path d="M196 0h105v60H196zM503.301 503.299c-11.7 11.7-30.901 11.7-42.601 0l-90-90L392 392l21.301-21.301 90 90c11.698 11.701 11.698 30.901 0 42.6z" style="" fill="#2c3b73" data-original="#2c3b73"></path><path d="M503.301 503.299c-11.7 11.7-30.901 11.7-42.601 0l-90-90L392 392l111.301 111.299z" style="" fill="#293939" data-original="#293939"></path><path d="M421.099 272.899c-41.1-41.1-107.399-41.1-148.198 0-41.102 41.1-41.102 107.401 0 148.2 41.1 41.1 107.399 41.1 148.198 0 41.102-41.099 41.102-107.398 0-148.2z" style="" fill="#47568c" data-original="#47568c" class=""></path><path d="M421.099 421.099c-40.8 41.1-107.098 41.1-148.198 0-41.102-40.8-41.102-107.1 0-148.2l148.198 148.2z" style="" fill="#2c3b73" data-original="#2c3b73"></path><path d="M400.101 400.099c-29.401 29.101-76.8 29.401-106.201 0-29.099-29.399-29.399-76.8 0-106.199 29.401-29.099 76.8-29.399 106.201 0 29.099 29.399 29.399 76.8 0 106.199z" style="" fill="#9bfcff" data-original="#9bfcff" class=""></path><path d="M400.101 400.099c-29.401 29.101-76.8 29.401-106.201 0-29.099-29.399-29.399-76.8 0-106.199l106.201 106.199z" style="" fill="#76e2f8" data-original="#76e2f8" class=""></path></g></svg>