<svg xmlns="http://www.w3.org/2000/svg" version="1.1" xmlns:xlink="http://www.w3.org/1999/xlink" xmlns:svgjs="http://svgjs.com/svgjs" width="512" height="512" x="0" y="0" viewBox="0 0 512 512" style="enable-background:new 0 0 512 512" xml:space="preserve" class=""><g><path fill="#333940" d="M512 256c0 141.387-114.613 256-256 256S0 397.387 0 256 114.613 0 256 0s256 114.613 256 256zm0 0" data-original="#333940"></path><path fill="#23272b" d="M304.602 507.371c112.16-21.558 198.28-116.3 206.71-232.598L335.222 98.68l-49.003 7.82 53.02 53.023.3 4.516L256 80.5 124.5 246l53.234 53.234-34.847 40.918 40.281 40.282-3.523 1.98zm0 0" data-original="#23272b"></path><path fill="#f2f6fc" d="m378.125 152.934-16.629 16.629V155.78c0-41.511-33.77-75.281-75.277-75.281v26c27.172 0 49.277 22.105 49.277 49.281v13.781l-16.629-16.628-18.383 18.386 48.012 48.016 48.016-48.016zm0 0" data-original="#f2f6fc"></path><path fill="#fe6a16" d="M166.715 80.5 124.5 122.715V246H256V80.5zm0 0" data-original="#fe6a16"></path><path fill="#f24500" d="M197.602 80.5H256V246h-58.398zm0 0" data-original="#f24500"></path><path fill="#ffffff" d="M166.715 122.715V80.5L124.5 122.715zm0 0" data-original="#ffffff"></path><path fill="#ffda00" d="m307.227 241.012-42.215 42.215v123.285h131.5v-165.5zm0 0" data-original="#ffda00"></path><path fill="#ffc200" d="M338.16 241.012h58.352v165.5H338.16zm0 0" data-original="#ffc200"></path><g fill="#fff"><path d="M307.227 283.227v-42.215l-42.215 42.215zM185.516 331.23v-7.707l16.629 16.63 18.382-18.383-48.011-48.016L124.5 321.77l18.387 18.382 16.629-16.629v7.707c0 41.512 33.77 75.282 75.277 75.282v-26c-27.172 0-49.277-22.11-49.277-49.282zm0 0" fill="#ffffff" data-original="#ffffff"></path></g></g></svg>