<svg xmlns="http://www.w3.org/2000/svg" version="1.1" xmlns:xlink="http://www.w3.org/1999/xlink" xmlns:svgjs="http://svgjs.com/svgjs" width="512" height="512" x="0" y="0" viewBox="0 0 512 512" style="enable-background:new 0 0 512 512" xml:space="preserve" class=""><g><path d="M370.759 503.172H141.241c-9.754 0-17.655-7.901-17.655-17.655 0-9.754 7.901-17.655 17.655-17.655h229.517c9.754 0 17.655 7.901 17.655 17.655.001 9.755-7.9 17.655-17.654 17.655z" style="" fill="#e7eced" data-original="#e7eced"></path><path d="M300.138 397.241v-17.655h-88.276v17.655c0 39.036-13.93 70.621-52.966 70.621h194.207c-39.035 0-52.965-31.585-52.965-70.621z" style="" fill="#afb6bb" data-original="#afb6bb"></path><path d="M485.508 397.241H26.492C11.864 397.241 0 385.377 0 370.75v-52.957h512v52.957c0 14.627-11.864 26.491-26.492 26.491z" style="" fill="#e7eced" data-original="#e7eced"></path><path d="M282.483 370.759h-52.966c-4.873 0-8.828-3.955-8.828-8.828s3.955-8.828 8.828-8.828h52.966c4.873 0 8.828 3.955 8.828 8.828s-3.955 8.828-8.828 8.828z" style="" fill="#afb6bb" data-original="#afb6bb"></path><path d="M441.379 8.828H26.492C11.864 8.828 0 20.692 0 35.319v291.302H512V35.319c0-14.627-11.864-26.492-26.492-26.492h-44.129z" style="" fill="#495d72" data-original="#495d72" class=""></path><path d="M238.345 44.138H476.69v282.483H238.345z" style="" fill="#28384c" data-original="#28384c" class=""></path><path d="M35.31 44.138H256v282.483H35.31z" style="" fill="#ebba16" data-original="#ebba16" class=""></path><path d="M132.405 300.138c-1.324 0-2.675-.3-3.946-.927-4.361-2.18-6.126-7.486-3.946-11.847l26.483-52.965c2.18-4.361 7.495-6.126 11.847-3.946 4.361 2.18 6.126 7.486 3.946 11.847l-26.483 52.965a8.82 8.82 0 0 1-7.901 4.873zM70.621 273.655c-2.26 0-4.52-.865-6.241-2.586a8.817 8.817 0 0 1 0-12.482l26.483-26.483a8.817 8.817 0 0 1 12.482 0 8.817 8.817 0 0 1 0 12.482l-26.483 26.483a8.805 8.805 0 0 1-6.241 2.586z" style="" fill="#ffffff" data-original="#ffffff" class=""></path><path d="M97.103 300.138c-2.26 0-4.52-.865-6.241-2.586L64.38 271.069a8.817 8.817 0 0 1 0-12.482 8.817 8.817 0 0 1 12.482 0l26.483 26.483a8.817 8.817 0 0 1 0 12.482 8.807 8.807 0 0 1-6.242 2.586zM220.69 273.655c-2.26 0-4.52-.865-6.241-2.586l-26.483-26.483a8.817 8.817 0 0 1 0-12.482 8.817 8.817 0 0 1 12.482 0l26.483 26.483a8.817 8.817 0 0 1 0 12.482 8.805 8.805 0 0 1-6.241 2.586z" style="" fill="#ffffff" data-original="#ffffff" class=""></path><path d="M194.207 300.138c-2.26 0-4.52-.865-6.241-2.586a8.817 8.817 0 0 1 0-12.482l26.483-26.483a8.817 8.817 0 0 1 12.482 0 8.817 8.817 0 0 1 0 12.482l-26.483 26.483a8.803 8.803 0 0 1-6.241 2.586zM150.069 150.069c-4.873 0-8.828-3.955-8.828-8.828V79.448c0-4.873 3.955-8.828 8.828-8.828 4.873 0 8.828 3.955 8.828 8.828v61.793c0 4.873-3.955 8.828-8.828 8.828zM150.069 203.034c-4.873 0-8.828-3.955-8.828-8.828v-17.655c0-4.873 3.955-8.828 8.828-8.828 4.873 0 8.828 3.955 8.828 8.828v17.655c0 4.874-3.955 8.828-8.828 8.828z" style="" fill="#ffffff" data-original="#ffffff" class=""></path><path d="M379.586 88.276H291.31c-4.873 0-8.828-3.955-8.828-8.828 0-4.873 3.955-8.828 8.828-8.828h88.276c4.873 0 8.828 3.955 8.828 8.828 0 4.873-3.955 8.828-8.828 8.828z" style="" fill="#dd352e" data-original="#dd352e"></path><path d="M441.379 88.276h-26.483c-4.873 0-8.828-3.955-8.828-8.828 0-4.873 3.955-8.828 8.828-8.828h26.483c4.873 0 8.828 3.955 8.828 8.828 0 4.873-3.955 8.828-8.828 8.828z" style="" fill="#366db6" data-original="#366db6"></path><path d="M441.379 123.586h-88.276c-4.873 0-8.828-3.955-8.828-8.828s3.955-8.828 8.828-8.828h88.276c4.873 0 8.828 3.955 8.828 8.828s-3.955 8.828-8.828 8.828z" style="" fill="#75348b" data-original="#75348b" class=""></path><path d="M317.793 123.586H291.31c-4.873 0-8.828-3.955-8.828-8.828s3.955-8.828 8.828-8.828h26.483c4.873 0 8.828 3.955 8.828 8.828s-3.955 8.828-8.828 8.828z" style="" fill="#57abc1" data-original="#57abc1"></path><path d="M379.586 158.897H291.31c-4.873 0-8.828-3.955-8.828-8.828 0-4.873 3.955-8.828 8.828-8.828h88.276c4.873 0 8.828 3.955 8.828 8.828 0 4.873-3.955 8.828-8.828 8.828z" style="" fill="#25ae88" data-original="#25ae88" class=""></path><path d="M441.379 158.897h-26.483c-4.873 0-8.828-3.955-8.828-8.828 0-4.873 3.955-8.828 8.828-8.828h26.483c4.873 0 8.828 3.955 8.828 8.828 0 4.873-3.955 8.828-8.828 8.828z" style="" fill="#f76363" data-original="#f76363"></path><path d="M441.379 194.207h-88.276c-4.873 0-8.828-3.955-8.828-8.828 0-4.873 3.955-8.828 8.828-8.828h88.276c4.873 0 8.828 3.955 8.828 8.828 0 4.873-3.955 8.828-8.828 8.828z" style="" fill="#bf5a45" data-original="#bf5a45"></path><path d="M317.793 194.207H291.31c-4.873 0-8.828-3.955-8.828-8.828 0-4.873 3.955-8.828 8.828-8.828h26.483c4.873 0 8.828 3.955 8.828 8.828 0 4.873-3.955 8.828-8.828 8.828z" style="" fill="#f2ecbf" data-original="#f2ecbf"></path><path d="M441.379 300.138h-88.276c-4.873 0-8.828-3.955-8.828-8.828 0-4.873 3.955-8.828 8.828-8.828h88.276c4.873 0 8.828 3.955 8.828 8.828 0 4.873-3.955 8.828-8.828 8.828z" style="" fill="#25ae88" data-original="#25ae88" class=""></path><path d="M317.793 300.138H291.31c-4.873 0-8.828-3.955-8.828-8.828 0-4.873 3.955-8.828 8.828-8.828h26.483c4.873 0 8.828 3.955 8.828 8.828 0 4.873-3.955 8.828-8.828 8.828z" style="" fill="#dd352e" data-original="#dd352e"></path><path d="M379.586 229.517H291.31c-4.873 0-8.828-3.955-8.828-8.828 0-4.873 3.955-8.828 8.828-8.828h88.276c4.873 0 8.828 3.955 8.828 8.828 0 4.873-3.955 8.828-8.828 8.828z" style="" fill="#75348b" data-original="#75348b" class=""></path><path d="M441.379 229.517h-26.483c-4.873 0-8.828-3.955-8.828-8.828 0-4.873 3.955-8.828 8.828-8.828h26.483c4.873 0 8.828 3.955 8.828 8.828 0 4.873-3.955 8.828-8.828 8.828z" style="" fill="#ebba16" data-original="#ebba16" class=""></path><path d="M441.379 264.828h-88.276c-4.873 0-8.828-3.955-8.828-8.828s3.955-8.828 8.828-8.828h88.276c4.873 0 8.828 3.955 8.828 8.828s-3.955 8.828-8.828 8.828z" style="" fill="#ed8a19" data-original="#ed8a19"></path><path d="M317.793 264.828H291.31c-4.873 0-8.828-3.955-8.828-8.828s3.955-8.828 8.828-8.828h26.483c4.873 0 8.828 3.955 8.828 8.828s-3.955 8.828-8.828 8.828z" style="" fill="#c5411e" data-original="#c5411e"></path></g></svg>