<svg xmlns="http://www.w3.org/2000/svg" version="1.1" xmlns:xlink="http://www.w3.org/1999/xlink" xmlns:svgjs="http://svgjs.com/svgjs" width="512" height="512" x="0" y="0" viewBox="0 0 24 24" style="enable-background:new 0 0 512 512" xml:space="preserve" class=""><g><path fill="#607d8b" d="M21 2H3C1.346 2 0 3.346 0 5v16c0 1.654 1.346 3 3 3h18c1.654 0 3-1.346 3-3V5c0-1.654-1.346-3-3-3z" data-original="#607d8b"></path><path fill="#ffffff" d="M21 22H3c-.551 0-1-.448-1-1V7h20v14c0 .552-.449 1-1 1z" data-original="#ffffff"></path><path fill="#546d79" d="M12 2H3C1.346 2 0 3.346 0 5v16c0 1.654 1.346 3 3 3h9v-2H3c-.551 0-1-.448-1-1V7h10z" data-original="#546d79"></path><path fill="#dedede" d="M12 7H2v14c0 .552.449 1 1 1h9z" data-original="#dedede"></path><path fill="#90a4ae" d="m20.55 10.031-4.855-2.739.737-1.307 4.854 2.739z" data-original="#90a4ae"></path><path fill="#90a4ae" d="m16.452 6.03-.742-1.302 4.836-2.757.742 1.302z" data-original="#90a4ae"></path><path fill="#7d8f97" d="m16.429 5.99-.734 1.302L18.5 8.874V7.152l-2.018-1.138-.03.016z" data-original="#7d8f97"></path><path fill="#7d8f97" d="m18.5 3.137-2.79 1.591.719 1.262.023.04.03-.016L18.5 4.863z" data-original="#7d8f97"></path><g fill="#2196f3"><path d="M22 4c-1.103 0-2-.897-2-2s.897-2 2-2 2 .897 2 2-.897 2-2 2zM22 12c-1.103 0-2-.897-2-2s.897-2 2-2 2 .897 2 2-.897 2-2 2zM15 8c-1.103 0-2-.897-2-2s.897-2 2-2 2 .897 2 2-.897 2-2 2z" fill="#2196f3" data-original="#2196f3" class=""></path></g><path fill="#1d83d4" d="M15 4c-1.103 0-2 .897-2 2s.897 2 2 2zM22 8c-1.103 0-2 .897-2 2s.897 2 2 2zM22 0c-1.103 0-2 .897-2 2s.897 2 2 2z" data-original="#1d83d4" class=""></path><path fill="#ffc107" d="M13.75 19.5a.75.75 0 0 1-.569-1.239L14.262 17l-1.081-1.262a.75.75 0 0 1 1.139-.977l1.5 1.75a.75.75 0 0 1 0 .977l-1.5 1.75a.75.75 0 0 1-.57.262zM7.25 19.5a.747.747 0 0 1-.569-.262l-1.5-1.75a.75.75 0 0 1 0-.977l1.5-1.75a.75.75 0 0 1 1.139.977L6.738 17l1.081 1.262A.75.75 0 0 1 7.25 19.5zM9.582 20.98a.748.748 0 0 1-.562-.899l1.5-6.5a.75.75 0 0 1 1.461.337l-1.5 6.5a.75.75 0 0 1-.899.562z" data-original="#ffc107"></path><path fill="#dea806" d="M16 17h-1.739l-1.081 1.262a.75.75 0 0 0 1.138.977l1.5-1.75A.745.745 0 0 0 16 17zM6.738 17H5c0 .174.06.348.181.488l1.5 1.75a.747.747 0 0 0 1.057.081.75.75 0 0 0 .081-1.058zM11.269 17H9.731l-.711 3.081a.748.748 0 0 0 .731.919.752.752 0 0 0 .73-.582z" data-original="#dea806"></path></g></svg>