<svg xmlns="http://www.w3.org/2000/svg" version="1.1" xmlns:xlink="http://www.w3.org/1999/xlink" xmlns:svgjs="http://svgjs.com/svgjs" width="512" height="512" x="0" y="0" viewBox="0 0 511.995 511.995" style="enable-background:new 0 0 512 512" xml:space="preserve" class=""><g><g fill="#2ad7f5"><path d="m109.186 395.374-18.372 23.717C132.117 451.087 181.63 468 234 468l8-16-8-14c-45.657 0-88.817-14.739-124.814-42.626zM90.779 249h30.209c7.366 55.796 55.236 99 113.012 99l10-47-10-43c-13.234 0-24-10.767-24-24s10.766-24 24-24v-30c-29.776 0-54 24.225-54 54 0 24.571 16.502 45.346 39 51.864v30.768c-39.182-7.096-69-41.436-69-82.632 0-15.288 4.143-30.248 11.98-43.262l-25.7-15.477a113.652 113.652 0 0 0-15.286 43.738H90.779C98.305 146.621 159.663 90 234 90l11-45-11-45C171.497 0 112.734 24.34 68.537 68.537S0 171.496 0 234c0 49.954 15.523 97.62 44.892 137.845l24.229-17.689C43.528 319.101 30 277.552 30 234c0-107.441 83.492-195.742 189-203.447v30.1C130.053 68.285 60 143.109 60 234c0 95.944 78.056 174 174 174l15-14-15-16c-74.337 0-135.695-56.621-143.221-129z" fill="#2ad7f5" data-original="#2ad7f5"></path><path d="M199.219 157.513C210.161 152.527 221.863 150 234 150l10-15-10-15c-16.458 0-32.345 3.436-47.219 10.212z" fill="#2ad7f5" data-original="#2ad7f5"></path></g><path fill="#29b0ea" d="M399.463 68.537C355.266 24.34 296.504 0 234 0v90c40.139 0 78.762 16.946 105.965 46.493l22.07-20.32c-29.462-32-70.015-51.754-113.035-55.507V30.553C354.509 38.258 438 126.559 438 234c0 112.486-91.514 204-204 204v30c62.504 0 121.266-24.34 165.463-68.537S468 296.504 468 234s-24.34-121.266-68.537-165.463z" data-original="#29b0ea" class=""></path><path fill="#29b0ea" d="M318 234c0 41.196-29.818 75.536-69 82.632v-30.768c22.498-6.518 39-27.294 39-51.864h-30c0 13.233-10.766 24-24 24v90c62.859 0 114-51.141 114-114s-51.141-114-114-114v30c46.317 0 84 37.683 84 84z" data-original="#29b0ea" class=""></path><path fill="#29b0ea" d="M408 234c0-23.528-4.62-46.357-13.731-67.854l-27.621 11.707C374.181 195.626 378 214.517 378 234c0 79.401-64.599 144-144 144v30c95.944 0 174-78.056 174-174z" data-original="#29b0ea" class=""></path><path fill="#c6ea4b" d="M305.531 408.763c0 56.922 46.31 103.232 103.232 103.232l11.996-99.333-11.996-107.131c-56.922 0-103.232 46.31-103.232 103.232z" data-original="#c6ea4b"></path><path fill="#59c87f" d="M408.763 305.531v206.464c56.922 0 103.232-46.31 103.232-103.232s-46.31-103.232-103.232-103.232z" data-original="#59c87f"></path><path fill="#f4f2f1" d="m393.416 408.214-22.382-22.382-21.213 21.213 43.595 43.595 15.347-15.347 11.17-30.003-11.17-12.423z" data-original="#f4f2f1"></path><path fill="#e2e2eb" d="m442.966 358.664-34.203 34.203v42.426l55.416-55.416z" data-original="#e2e2eb"></path></g></svg>