<svg xmlns="http://www.w3.org/2000/svg" version="1.1" xmlns:xlink="http://www.w3.org/1999/xlink" xmlns:svgjs="http://svgjs.com/svgjs" width="512" height="512" x="0" y="0" viewBox="0 0 512 512" style="enable-background:new 0 0 512 512" xml:space="preserve" class=""><g><path d="M469.333 149.333H42.667C19.135 149.333 0 168.469 0 192v128c0 23.531 19.135 42.667 42.667 42.667h426.667C492.865 362.667 512 343.531 512 320V192c0-23.531-19.135-42.667-42.667-42.667zM490.667 320c0 11.76-9.573 21.333-21.333 21.333H42.667c-11.76 0-21.333-9.573-21.333-21.333V192c0-11.76 9.573-21.333 21.333-21.333h426.667c11.76 0 21.333 9.573 21.333 21.333v128z" fill="#000000" data-original="#000000"></path><path d="M132.948 234.667c-2.958-5.125-9.51-6.844-14.573-3.906l-11.708 6.76V224c0-5.896-4.771-10.667-10.667-10.667S85.333 218.104 85.333 224v13.521l-11.708-6.76c-5.094-2.938-11.625-1.219-14.573 3.906-2.948 5.104-1.198 11.625 3.906 14.573L74.665 256l-11.707 6.76c-5.104 2.948-6.854 9.469-3.906 14.573a10.657 10.657 0 0 0 9.25 5.333c1.813 0 3.646-.458 5.323-1.427l11.708-6.76V288c0 5.896 4.771 10.667 10.667 10.667s10.667-4.771 10.667-10.667v-13.521l11.708 6.76a10.604 10.604 0 0 0 5.323 1.427c3.688 0 7.271-1.906 9.25-5.333 2.948-5.104 1.198-11.625-3.906-14.573L117.335 256l11.707-6.76c5.104-2.948 6.854-9.469 3.906-14.573zM239.615 234.667c-2.969-5.125-9.5-6.844-14.573-3.906l-11.708 6.76V224a10.66 10.66 0 0 0-10.667-10.667A10.66 10.66 0 0 0 192 224v13.521l-11.708-6.76c-5.104-2.938-11.635-1.219-14.573 3.906-2.948 5.104-1.198 11.625 3.906 14.573l11.707 6.76-11.707 6.76c-5.104 2.948-6.854 9.469-3.906 14.573a10.657 10.657 0 0 0 9.25 5.333c1.813 0 3.646-.458 5.323-1.427l11.708-6.76V288a10.66 10.66 0 0 0 10.667 10.667A10.66 10.66 0 0 0 213.334 288v-13.521l11.708 6.76a10.604 10.604 0 0 0 5.323 1.427c3.688 0 7.271-1.906 9.25-5.333 2.948-5.104 1.198-11.625-3.906-14.573L224.001 256l11.707-6.76c5.105-2.948 6.855-9.469 3.907-14.573zM346.281 234.667c-2.958-5.125-9.51-6.844-14.573-3.906L320 237.521V224a10.66 10.66 0 0 0-10.667-10.667A10.66 10.66 0 0 0 298.666 224v13.521l-11.708-6.76c-5.094-2.938-11.625-1.219-14.573 3.906-2.948 5.104-1.198 11.625 3.906 14.573l11.707 6.76-11.707 6.76c-5.104 2.948-6.854 9.469-3.906 14.573a10.657 10.657 0 0 0 9.25 5.333c1.813 0 3.646-.458 5.323-1.427l11.708-6.76V288a10.66 10.66 0 0 0 10.667 10.667A10.66 10.66 0 0 0 320 288v-13.521l11.708 6.76a10.604 10.604 0 0 0 5.323 1.427c3.688 0 7.271-1.906 9.25-5.333 2.948-5.104 1.198-11.625-3.906-14.573L330.668 256l11.707-6.76c5.104-2.948 6.854-9.469 3.906-14.573zM452.948 234.667c-2.948-5.125-9.5-6.844-14.573-3.906l-11.708 6.76V224A10.66 10.66 0 0 0 416 213.333 10.66 10.66 0 0 0 405.333 224v13.521l-11.708-6.76c-5.115-2.938-11.615-1.219-14.573 3.906-2.948 5.104-1.198 11.625 3.906 14.573l11.707 6.76-11.707 6.76c-5.104 2.948-6.854 9.469-3.906 14.573a10.657 10.657 0 0 0 9.25 5.333c1.813 0 3.646-.458 5.323-1.427l11.708-6.76V288A10.66 10.66 0 0 0 416 298.667 10.66 10.66 0 0 0 426.667 288v-13.521l11.708 6.76a10.604 10.604 0 0 0 5.323 1.427c3.688 0 7.271-1.906 9.25-5.333 2.948-5.104 1.198-11.625-3.906-14.573L437.335 256l11.707-6.76c5.104-2.948 6.854-9.469 3.906-14.573z" fill="#000000" data-original="#000000"></path></g></svg>