<svg xmlns="http://www.w3.org/2000/svg" version="1.1" xmlns:xlink="http://www.w3.org/1999/xlink" xmlns:svgjs="http://svgjs.com/svgjs" width="512" height="512" x="0" y="0" viewBox="0 0 59 59" style="enable-background:new 0 0 512 512" xml:space="preserve" class=""><g><g fill="none" fill-rule="nonzero"><path fill="#3f5c6c" d="M40 4v23.05l-9.23 6.32-20.6 14.11C4.09 46.8 0 45.49 0 44V4z" data-original="#3f5c6c"></path><path fill="#35495e" d="M40 17v10.05l-9.23 6.32A86.1 86.1 0 0 1 20 34C8.95 34 0 32.21 0 30V17c0 2.21 8.95 4 20 4s20-1.79 20-4z" data-original="#35495e"></path><path fill="#35495e" d="M27.971 17.231a1 1 0 0 1-.084-2 50.59 50.59 0 0 0 7.866-1.2 1 1 0 0 1 .494 1.938 52.707 52.707 0 0 1-8.19 1.259z" data-original="#35495e"></path><circle cx="4" cy="10" r="1" fill="#ff5364" data-original="#ff5364"></circle><path fill="#35495e" d="M4 17a1 1 0 0 1-1-1v-2a1 1 0 0 1 2 0v2a1 1 0 0 1-1 1z" data-original="#35495e"></path><circle cx="4" cy="23" r="1" fill="#ff5364" data-original="#ff5364"></circle><path fill="#2c3e50" d="M4 30a1 1 0 0 1-1-1v-2a1 1 0 0 1 2 0v2a1 1 0 0 1-1 1z" data-original="#2c3e50"></path><circle cx="4" cy="36" r="1" fill="#ff5364" data-original="#ff5364"></circle><path fill="#35495e" d="M4 43a1 1 0 0 1-1-1v-2a1 1 0 0 1 2 0v2a1 1 0 0 1-1 1z" data-original="#35495e"></path><path fill="#f0c419" d="M38.944 27c5.613 0 10.276 4.5 11.1 10.348 4.54.809 8.014 5.1 8.014 10.257 0 5.732-4.292 10.4-9.569 10.4H18.023C13.6 58 10 54.09 10 49.285s3.6-8.715 8.023-8.715h.163c.651-4.71 4.4-8.334 8.917-8.334.813 0 1.621.12 2.4.353A11.013 11.013 0 0 1 38.944 27z" data-original="#f0c419" class=""></path><ellipse cx="20" cy="4" fill="#547580" rx="20" ry="4" data-original="#547580"></ellipse></g></g></svg>