<svg xmlns="http://www.w3.org/2000/svg" version="1.1" xmlns:xlink="http://www.w3.org/1999/xlink" xmlns:svgjs="http://svgjs.com/svgjs" width="512" height="512" x="0" y="0" viewBox="0 0 450 450" style="enable-background:new 0 0 512 512" xml:space="preserve" class=""><g><g fill-rule="evenodd" clip-rule="evenodd"><path fill="#5d9cec" d="M409.58 162.61h-177.8v-51.33c0-3.19-2.59-5.78-5.78-5.78s-5.78 2.59-5.78 5.78V340.2c0 3.19 2.59 5.78 5.78 5.78s5.78-2.59 5.78-5.78v-51.33h177.8z" data-original="#5d9cec"></path><g fill="#fe646f"><path d="M202.39 291.76h-.12c-3.19 0-5.78-2.59-5.78-5.78s2.59-5.78 5.78-5.78h.12c3.19 0 5.78 2.59 5.78 5.78s-2.59 5.78-5.78 5.78zM176.58 291.76h-.26c-3.19 0-5.78-2.59-5.78-5.78s2.59-5.78 5.78-5.78h.26c3.19 0 5.78 2.59 5.78 5.78s-2.59 5.78-5.78 5.78zm-25.95 0h-.26c-3.19 0-5.78-2.59-5.78-5.78s2.59-5.78 5.78-5.78h.26c3.19 0 5.78 2.59 5.78 5.78s-2.59 5.78-5.78 5.78zm-25.95 0h-.26c-3.19 0-5.78-2.59-5.78-5.78s2.59-5.78 5.78-5.78h.26c3.19 0 5.78 2.59 5.78 5.78.01 3.19-2.58 5.78-5.78 5.78zm-25.94 0h-.26c-3.19 0-5.78-2.59-5.78-5.78s2.59-5.78 5.78-5.78h.26c3.19 0 5.78 2.59 5.78 5.78s-2.59 5.78-5.78 5.78zm-25.95 0h-.26c-3.19 0-5.78-2.59-5.78-5.78s2.59-5.78 5.78-5.78h.26c3.19 0 5.78 2.59 5.78 5.78s-2.59 5.78-5.78 5.78zM46.84 291.76h-.12c-3.19 0-5.78-2.59-5.78-5.78v-.12a5.783 5.783 0 0 1 9.93-4.03 5.767 5.767 0 0 1 1.75 4.15c.01 3.19-2.58 5.78-5.78 5.78zM46.72 267.79c-3.19 0-5.78-2.59-5.78-5.78v-.24c0-3.19 2.59-5.78 5.78-5.78s5.78 2.59 5.78 5.78v.23c.01 3.2-2.58 5.79-5.78 5.79zm0-24.1c-3.19 0-5.78-2.59-5.78-5.78v-.24c0-3.19 2.59-5.78 5.78-5.78s5.78 2.59 5.78 5.78v.24c.01 3.19-2.58 5.78-5.78 5.78zm0-24.09c-3.19 0-5.78-2.59-5.78-5.78v-.24c0-3.19 2.59-5.78 5.78-5.78s5.78 2.59 5.78 5.78v.24c.01 3.19-2.58 5.78-5.78 5.78zm0-24.1c-3.19 0-5.78-2.59-5.78-5.78v-.24c0-3.19 2.59-5.78 5.78-5.78s5.78 2.59 5.78 5.78v.24c.01 3.19-2.58 5.78-5.78 5.78zM46.72 171.4c-3.19 0-5.78-2.59-5.78-5.78v-.12c0-3.19 2.59-5.78 5.78-5.78h.12a5.783 5.783 0 0 1 4.03 9.93 5.767 5.767 0 0 1-4.15 1.75zM176.58 171.28h-.26c-3.19 0-5.78-2.59-5.78-5.78s2.59-5.78 5.78-5.78h.26c3.19 0 5.78 2.59 5.78 5.78s-2.59 5.78-5.78 5.78zm-25.95 0h-.26c-3.19 0-5.78-2.59-5.78-5.78s2.59-5.78 5.78-5.78h.26c3.19 0 5.78 2.59 5.78 5.78s-2.59 5.78-5.78 5.78zm-25.95 0h-.26c-3.19 0-5.78-2.59-5.78-5.78s2.59-5.78 5.78-5.78h.26c3.19 0 5.78 2.59 5.78 5.78s-2.58 5.78-5.78 5.78zm-25.94 0h-.26c-3.19 0-5.78-2.59-5.78-5.78s2.59-5.78 5.78-5.78h.26c3.19 0 5.78 2.59 5.78 5.78s-2.59 5.78-5.78 5.78zm-25.95 0h-.26c-3.19 0-5.78-2.59-5.78-5.78s2.59-5.78 5.78-5.78h.26c3.19 0 5.78 2.59 5.78 5.78s-2.59 5.78-5.78 5.78zM202.39 171.28h-.12c-3.19 0-5.78-2.59-5.78-5.78s2.59-5.78 5.78-5.78h.12c3.19 0 5.78 2.59 5.78 5.78s-2.59 5.78-5.78 5.78z" fill="#fe646f" data-original="#fe646f"></path></g><g fill="#e6e9ed"><path d="M314.92 197.55c-11.69 0-20.84 12.38-20.84 28.19s9.16 28.19 20.84 28.19 20.84-12.38 20.84-28.19-9.16-28.19-20.84-28.19zm5.85 40.81c-1.01 1.5-3.1 4.01-5.85 4.01s-4.84-2.51-5.85-4.01c-2.18-3.24-3.43-7.84-3.43-12.62s1.25-9.38 3.43-12.62c1.01-1.5 3.1-4.01 5.85-4.01s4.84 2.51 5.85 4.01c2.18 3.24 3.43 7.84 3.43 12.62-.01 4.78-1.26 9.38-3.43 12.62zM372.87 242.61h-6.51V203.42c.02-1.69-.69-3.37-2.09-4.53-2.46-2.04-6.11-1.7-8.14.76l-8.07 9.74c-2.04 2.46-1.7 6.1.76 8.14 1.08.9 2.39 1.33 3.69 1.33.79 0 1.57-.16 2.29-.47v24.23h-6.51c-3.19 0-5.78 2.59-5.78 5.78s2.59 5.78 5.78 5.78h24.58a5.785 5.785 0 0 0 0-11.57zM281.54 242.37h-6.51V203.18c.02-1.69-.69-3.37-2.09-4.53-2.46-2.04-6.11-1.7-8.14.76l-8.07 9.74c-2.04 2.46-1.7 6.1.76 8.14 1.08.9 2.39 1.33 3.69 1.33.79 0 1.57-.16 2.29-.47v24.23h-6.51c-3.19 0-5.78 2.59-5.78 5.78s2.59 5.78 5.78 5.78h24.58c3.19 0 5.78-2.59 5.78-5.78a5.766 5.766 0 0 0-5.78-5.79z" fill="#e6e9ed" data-original="#e6e9ed"></path></g><g fill="#fe646f"><path d="M109.56 214.41a5.787 5.787 0 0 0-7.9-2.12l-5.93 3.43v-6.85c0-3.19-2.59-5.78-5.78-5.78s-5.78 2.59-5.78 5.78v6.85l-5.93-3.43c-2.77-1.6-6.3-.65-7.9 2.12s-.65 6.3 2.12 7.9l5.93 3.43-5.93 3.43a5.787 5.787 0 0 0-2.12 7.9 5.76 5.76 0 0 0 5.01 2.89c.98 0 1.98-.25 2.89-.78l5.93-3.42v6.85c0 3.19 2.59 5.78 5.78 5.78s5.78-2.59 5.78-5.78v-6.85l5.93 3.42c.91.53 1.9.78 2.89.78 2 0 3.94-1.04 5.01-2.89 1.6-2.77.65-6.3-2.12-7.9l-5.93-3.43 5.93-3.43a5.776 5.776 0 0 0 2.12-7.9zM158.39 214.41a5.787 5.787 0 0 0-7.9-2.12l-5.93 3.43v-6.85c0-3.19-2.59-5.78-5.78-5.78s-5.78 2.59-5.78 5.78v6.85l-5.93-3.43c-2.77-1.6-6.3-.65-7.9 2.12s-.65 6.3 2.12 7.9l5.93 3.43-5.93 3.43a5.787 5.787 0 0 0-2.12 7.9 5.76 5.76 0 0 0 5.01 2.89c.98 0 1.98-.25 2.89-.78l5.93-3.42v6.85c0 3.19 2.59 5.78 5.78 5.78s5.78-2.59 5.78-5.78v-6.85l5.93 3.42c.91.53 1.9.78 2.89.78 2 0 3.94-1.04 5.01-2.89 1.6-2.77.65-6.3-2.12-7.9l-5.93-3.43 5.93-3.43c2.77-1.59 3.71-5.13 2.12-7.9zM207.21 214.41a5.787 5.787 0 0 0-7.9-2.12l-5.93 3.43v-6.85c0-3.19-2.59-5.78-5.78-5.78s-5.78 2.59-5.78 5.78v6.85l-5.93-3.43c-2.77-1.6-6.3-.65-7.9 2.12s-.65 6.3 2.12 7.9l5.93 3.43-5.93 3.43a5.787 5.787 0 0 0-2.12 7.9 5.76 5.76 0 0 0 5.01 2.89c.98 0 1.98-.25 2.89-.78l5.93-3.42v6.85c0 3.19 2.59 5.78 5.78 5.78s5.78-2.59 5.78-5.78v-6.85l5.93 3.42c.91.53 1.9.78 2.89.78 2 0 3.94-1.04 5.01-2.89 1.6-2.77.65-6.3-2.12-7.9l-5.93-3.43 5.93-3.43a5.776 5.776 0 0 0 2.12-7.9z" fill="#fe646f" data-original="#fe646f"></path></g></g></g></svg>