<svg xmlns="http://www.w3.org/2000/svg" version="1.1" xmlns:xlink="http://www.w3.org/1999/xlink" xmlns:svgjs="http://svgjs.com/svgjs" width="512" height="512" x="0" y="0" viewBox="0 0 501 501" style="enable-background:new 0 0 512 512" xml:space="preserve" class=""><g><path fill="#172a7d" d="M412.784 438.772C370.299 474.191 315.638 495.5 256 495.5c-135.31 0-245-109.69-245-244.999C11 114.944 121.934 4.698 257.489 5.504c110.805.66 204.173 74.876 233.745 176.286-43.326 0-78.449 35.123-78.449 78.449v178.533z" data-original="#172a7d" class=""></path><path fill="#1f3595" d="M480.325 310.952C443.766 368.96 379.133 407.5 305.5 407.5 191.453 407.5 99 315.047 99 201c0-89.909 57.46-166.398 137.661-194.748 6.381-.498 12.83-.752 19.339-.752 111.457 0 205.53 74.426 235.234 176.29 6.357 21.8-2.828 116.34-10.909 129.162z" data-original="#1f3595" class=""></path><path fill="#008a80" d="M62.741 353.25c0-8.284 6.716-15 15-15 5.552 0 10.399 3.017 12.993 7.5h162.007v15H90.734c-2.594 4.483-7.441 7.5-12.993 7.5-8.284 0-15-6.716-15-15zM157.993 407H320v-15H157.993c-2.594-4.483-7.441-7.5-12.993-7.5-8.284 0-15 6.716-15 15s6.716 15 15 15c5.552 0 10.399-3.017 12.993-7.5z" data-original="#008a80"></path><path fill="#fd2aa7" d="M332.609 65.164A7.39 7.39 0 0 1 340 72.555v54.262c0 8.164-6.618 14.783-14.783 14.783H14.783C6.618 141.599 0 134.981 0 126.817V42.99a7.39 7.39 0 0 1 7.391-7.391H99.49c4.622 0 8.758 2.867 10.381 7.194l8.389 22.371z" data-original="#fd2aa7"></path><path fill="#f02399" d="M22.174 141.599h-7.391C6.618 141.599 0 134.981 0 126.817V42.99a7.39 7.39 0 0 1 7.391-7.391h14.782v106z" data-original="#f02399"></path><path fill="#d80d80" d="M89 64.644H39a5 5 0 0 1-5-5v-5a5 5 0 0 1 5-5h50a5 5 0 0 1 5 5v5a5 5 0 0 1-5 5z" data-original="#d80d80"></path><path fill="#49b4fa" d="M340 127.423H0v-35.28h340z" data-original="#49b4fa"></path><path fill="#0191f8" d="M22.174 127.423H0v-35.28h22.174z" data-original="#0191f8"></path><path fill="#0280e3" d="M34 109.923c0 4.143-3.358 7.5-7.5 7.5s-7.5-3.357-7.5-7.5a7.5 7.5 0 0 1 15 0zm42.5-7.5a7.5 7.5 0 1 0 0 15 7.5 7.5 0 0 0 0-15zm-25 0a7.5 7.5 0 1 0 0 15 7.5 7.5 0 0 0 0-15z" data-original="#0280e3"></path><path fill="#fff5f5" d="M330 322.144H10c-5.523 0-10-4.477-10-10V125.409h340v186.735c0 5.522-4.477 10-10 10z" data-original="#fff5f5"></path><path fill="#bbe0fb" d="M22.174 322.144H10c-5.523 0-10-4.477-10-10V125.409h22.174z" data-original="#bbe0fb"></path><path fill="#63bcfa" d="M94 172H24a5 5 0 0 1-5-5v-5a5 5 0 0 1 5-5h70a5 5 0 0 1 5 5v5a5 5 0 0 1-5 5zm51 15H84a5 5 0 0 0-5 5v5a5 5 0 0 0 5 5h61a5 5 0 0 0 5-5v-5a5 5 0 0 0-5-5zm-10 90H84a5 5 0 0 0-5 5v5a5 5 0 0 0 5 5h51a5 5 0 0 0 5-5v-5a5 5 0 0 0-5-5zm-51-45h21a5 5 0 0 0 5-5v-5a5 5 0 0 0-5-5H84a5 5 0 0 0-5 5v5a5 5 0 0 0 5 5z" data-original="#63bcfa"></path><path fill="#fd4fb6" d="M59 282v5a5 5 0 0 1-5 5H24a5 5 0 0 1-5-5v-5a5 5 0 0 1 5-5h30a5 5 0 0 1 5 5zm-5-65H24a5 5 0 0 0-5 5v5a5 5 0 0 0 5 5h30a5 5 0 0 0 5-5v-5a5 5 0 0 0-5-5z" data-original="#fd4fb6"></path><path fill="#008a80" d="M19 197v-5a5 5 0 0 1 5-5h30a5 5 0 0 1 5 5v5a5 5 0 0 1-5 5H24a5 5 0 0 1-5-5zm55 50H24a5 5 0 0 0-5 5v5a5 5 0 0 0 5 5h50a5 5 0 0 0 5-5v-5a5 5 0 0 0-5-5z" data-original="#008a80"></path><path fill="#f5c02c" d="M298.261 181.793h192.974C497.591 203.592 501 226.648 501 250.5c0 2.585-.04 5.162-.12 7.729H194.783c-8.164 0-14.783-6.619-14.783-14.783v-83.827a7.391 7.391 0 0 1 7.391-7.392h92.099c4.622 0 8.758 2.867 10.381 7.194z" data-original="#f5c02c"></path><path fill="#f19b0b" d="M202.174 258.228h-7.391c-8.164 0-14.783-6.618-14.783-14.783v-83.827a7.39 7.39 0 0 1 7.391-7.391h14.782v106.001z" data-original="#f19b0b"></path><path fill="#fc9302" d="M180 242.038h320.856c.095 2.809.144 5.63.144 8.462 0 75.672-34.307 143.331-88.216 188.272H190c-5.523 0-10-4.477-10-10z" data-original="#fc9302"></path><path fill="#f57e00" d="M202.174 438.772H190c-5.523 0-10-4.477-10-10V242.038h22.174z" data-original="#f57e00"></path><path fill="#fdbf43" d="M299.882 334.42c11.645 0 21.118-9.474 21.118-21.118v-21.778c0-11.645-9.473-21.118-21.118-21.118s-21.118 9.474-21.118 21.118v21.778c0 11.644 9.474 21.118 21.118 21.118zm-6.118-42.897c0-3.374 2.745-6.118 6.118-6.118s6.118 2.744 6.118 6.118v21.778a6.125 6.125 0 0 1-6.118 6.118 6.124 6.124 0 0 1-6.118-6.118zm67.963-12.657a7.5 7.5 0 0 1 7.5-7.5h10.065a7.5 7.5 0 0 1 7.5 7.5v47.093c0 4.143-3.358 7.5-7.5 7.5s-7.5-3.357-7.5-7.5v-39.593h-2.565a7.5 7.5 0 0 1-7.5-7.5zM246.624 334.42c11.645 0 21.118-9.474 21.118-21.118v-21.778c0-11.645-9.473-21.118-21.118-21.118s-21.118 9.474-21.118 21.118v21.778c-.001 11.644 9.473 21.118 21.118 21.118zm-6.119-42.897c0-3.374 2.745-6.118 6.118-6.118s6.118 2.744 6.118 6.118v21.778a6.125 6.125 0 0 1-6.118 6.118 6.124 6.124 0 0 1-6.118-6.118zm62.302 63.329v47.093c0 4.143-3.358 7.5-7.5 7.5s-7.5-3.357-7.5-7.5v-39.593h-2.565c-4.142 0-7.5-3.357-7.5-7.5s3.358-7.5 7.5-7.5h10.065a7.5 7.5 0 0 1 7.5 7.5zm-53.183-8.461c-11.645 0-21.118 9.474-21.118 21.118v21.778c0 11.645 9.474 21.118 21.118 21.118 11.645 0 21.118-9.474 21.118-21.118v-21.778c-.001-11.645-9.474-21.118-21.118-21.118zm6.117 42.896a6.125 6.125 0 0 1-6.118 6.118 6.124 6.124 0 0 1-6.118-6.118v-21.778c0-3.374 2.745-6.118 6.118-6.118s6.118 2.744 6.118 6.118zm90.589-55.828a7.5 7.5 0 0 1-7.5-7.5v-39.593h-2.565c-4.142 0-7.5-3.357-7.5-7.5s3.358-7.5 7.5-7.5h10.065a7.5 7.5 0 0 1 7.5 7.5v47.093a7.5 7.5 0 0 1-7.5 7.5zm22.552 12.932c-11.645 0-21.118 9.474-21.118 21.118v21.778c0 11.645 9.474 21.118 21.118 21.118S390 400.932 390 389.287v-21.778c0-11.645-9.473-21.118-21.118-21.118zM375 389.287a6.125 6.125 0 0 1-6.118 6.118 6.124 6.124 0 0 1-6.118-6.118v-21.778c0-3.374 2.745-6.118 6.118-6.118s6.118 2.744 6.118 6.118zm-37.17-34.435v47.093c0 4.143-3.358 7.5-7.5 7.5s-7.5-3.357-7.5-7.5v-39.593h-2.565c-4.142 0-7.5-3.357-7.5-7.5s3.358-7.5 7.5-7.5h10.065a7.5 7.5 0 0 1 7.5 7.5z" data-original="#fdbf43"></path><path fill="#008a80" d="M472.053 234.976v26.549a5.79 5.79 0 0 1-1.696 4.094l-8.188 8.188a5.789 5.789 0 0 0-1.696 4.094v81.366a5.79 5.79 0 0 1-5.789 5.789h-11.579a5.79 5.79 0 0 1-5.789-5.789v-3.391a5.79 5.79 0 0 0-1.696-4.094l-8.188-8.188a5.789 5.789 0 0 1-1.696-4.094V234.976a5.79 5.79 0 0 1 5.789-5.789h34.737a5.79 5.79 0 0 1 5.791 5.789z" data-original="#008a80"></path><path fill="#01988c" d="M444.776 229.187h21.487a5.79 5.79 0 0 1 5.789 5.79v26.549c0 1.536-.61 3.008-1.696 4.094l-8.188 8.188a5.787 5.787 0 0 0-1.696 4.094v81.366a5.79 5.79 0 0 1-4.954 5.729 5.79 5.79 0 0 1-4.954-5.729v-8.392a5.79 5.79 0 0 0-1.696-4.094l-8.188-8.188a5.789 5.789 0 0 1-1.696-4.094v-99.523a5.794 5.794 0 0 1 5.792-5.79z" data-original="#01988c"></path><path fill="#bbe0fb" d="M491 159.713h-84.211c-5.523 0-10 4.477-10 10v72.631c0 5.523 4.477 10 10 10H491c5.523 0 10-4.477 10-10v-72.631c0-5.523-4.477-10-10-10zm-13.158 41.316a5 5 0 0 1-5 5h-47.895a5 5 0 0 1-5-5v-13.158a5 5 0 0 1 5-5h47.895a5 5 0 0 1 5 5z" data-original="#bbe0fb"></path><path fill="#e3f0fb" d="M501 169.713v72.631c0 5.523-4.477 10-10 10h-61.053c-5.523 0-10-4.477-10-10v-41.316a5 5 0 0 0 5 5h47.895a5 5 0 0 0 5-5V187.87a5 5 0 0 0-5-5h-47.895a5 5 0 0 0-5 5v-18.158c0-5.523 4.477-10 10-10H491c5.523.001 10 4.478 10 10.001z" data-original="#e3f0fb"></path><path fill="#fff5f5" d="M390 116.686c0 4.107-3.164 7.688-7.269 7.811A7.5 7.5 0 0 1 375 117v-9.21a5 5 0 0 0-5-5h-28.053l6.549 6.548c2.989 2.989 3.154 8.047.093 10.962a7.48 7.48 0 0 1-5.171 2.067 7.481 7.481 0 0 1-5.304-2.196l-19.382-19.382a7.5 7.5 0 0 1 0-10.607L338.113 70.8a7.504 7.504 0 0 1 10.769.166c2.816 2.989 2.522 7.758-.382 10.661l-6.163 6.163h32.699c8.299 0 15.021 6.739 15 15.039zm-7.5 17.814a7.5 7.5 0 1 0 0 15 7.5 7.5 0 0 0 0-15zm0 23a7.5 7.5 0 1 0 0 15 7.5 7.5 0 0 0 0-15z" data-original="#fff5f5"></path></g></svg>