<svg xmlns="http://www.w3.org/2000/svg" version="1.1" xmlns:xlink="http://www.w3.org/1999/xlink" xmlns:svgjs="http://svgjs.com/svgjs" width="512" height="512" x="0" y="0" viewBox="0 0 468 468" style="enable-background:new 0 0 512 512" xml:space="preserve" class=""><g><path fill="#b6b6b6" d="M225.861 87.497h16v59.094h-16zM356.925 308.052H241.861v-30.12h-16v92.571h16v-46.451h115.064zM421.271 280.653h-16v-59.078H300.295v-16h112.977a8 8 0 0 1 8 8v67.078zM63.036 285.722h-16v-72.146a8 8 0 0 1 8-8H165.6v16H63.036z" data-original="#b6b6b6" class=""></path><path fill="#fbc02d" d="M176.671 26h114.381v71.294H176.671z" data-original="#fbc02d" class=""></path><path fill="#f9a825" d="M264.929 26h26.124v71.294h-26.124z" data-original="#f9a825" class=""></path><path fill="#1fd4af" d="M318.101 213.576 234 295.055l-84.101-81.479L234 132.097z" data-original="#1fd4af" class=""></path><path fill="#0eaf89" d="M318.101 213.576 234 132.097l-18.942 18.351 65.16 63.128-65.16 63.128L234 295.055z" data-original="#0eaf89"></path><path fill="#f53759" d="M176.671 370.706h114.381V442H176.671z" data-original="#f53759" class=""></path><path fill="#dd3051" d="M263.84 370.706h27.212V442H263.84z" data-original="#dd3051" class=""></path><path fill="#fbc02d" d="M353.619 278.777H468v71.294H353.619z" data-original="#fbc02d" class=""></path><path fill="#f9a825" d="M440.788 278.777H468v71.294h-27.212z" data-original="#f9a825" class=""></path><path fill="#f53759" d="M0 283.415h114.381v71.294H0z" data-original="#f53759" class=""></path><path fill="#dd3051" d="M87.169 283.415h27.212v71.294H87.169z" data-original="#dd3051" class=""></path><path fill="#ffffff" d="M196.77 205.576h23.95v16h-23.95zM247.28 205.576h23.95v16h-23.95z" data-original="#ffffff" class=""></path></g></svg>