<svg xmlns="http://www.w3.org/2000/svg" version="1.1" xmlns:xlink="http://www.w3.org/1999/xlink" xmlns:svgjs="http://svgjs.com/svgjs" width="512" height="512" x="0" y="0" viewBox="0 0 512 512" style="enable-background:new 0 0 512 512" xml:space="preserve" class=""><g><circle cx="256" cy="256" r="256" fill="#ffed6e" data-original="#ffed6e" class=""></circle><path fill="#ffc41f" d="M512 256c0-6.026-.224-11.998-.634-17.92L366.061 92.775 147.477 292.95l129.21 130.624-122.49 25.79 59.073 59.065A257.477 257.477 0 0 0 256 512c141.385 0 256-114.615 256-256z" data-original="#ffc41f" class=""></path><path fill="#891b16" d="M350.007 283.121 256 423.574l-11.612-75.646L256 299.486z" data-original="#891b16" class=""></path><path fill="#e53950" d="M161.993 283.121 256 423.574V299.486z" data-original="#e53950" class=""></path><path fill="#fe646f" d="M107.796 192.026c0-81.851 66.353-148.204 148.204-148.204 0 0 122.426 66.353 122.426 148.204C378.426 273.876 256 340.23 256 340.23c-81.851 0-148.204-66.354-148.204-148.204z" data-original="#fe646f" class=""></path><path fill="#e53950" d="M256 43.821V340.23c81.851 0 148.204-66.353 148.204-148.204S337.851 43.821 256 43.821z" data-original="#e53950" class=""></path><path fill="#ffffff" d="M161.121 192.026c0-52.4 42.479-94.879 94.879-94.879 0 0 76.418 42.479 76.418 94.879S256 286.904 256 286.904c-52.4 0-94.879-42.478-94.879-94.878z" data-original="#ffffff" class=""></path><path fill="#e5e5e5" d="M350.879 192.026c0-52.4-42.479-94.879-94.879-94.879v189.758c52.4-.001 94.879-42.479 94.879-94.879z" data-original="#e5e5e5"></path><path fill="#537983" d="M256 456.884h-84.245c-13.409 0-24.278-10.87-24.278-24.279s10.87-24.279 24.278-24.279H256l41.198 15.247-2.653 9.032z" data-original="#537983"></path><path fill="#384949" d="M340.244 408.327H256v48.557h84.244c13.409 0 24.279-10.87 24.279-24.279 0-13.408-10.87-24.278-24.279-24.278z" data-original="#384949"></path><path fill="#537983" d="M213.255 138.797h23.141v106.457h-23.141zM256 138.797h-7.589v106.457H256l8.364-10.682V149.05z" data-original="#537983"></path><path fill="#384949" d="M283.181 138.797H256v106.457h15.552v-36.252c4.34-.022 8.9-.041 11.629-.041 19.599 0 35.543-15.739 35.543-35.083s-15.944-35.081-35.543-35.081zm0 47.024c-2.71 0-7.215.018-11.53.039-.022-4.477-.041-9.19-.041-11.982 0-2.377-.011-7.245-.024-11.941h11.595c6.723 0 12.403 5.469 12.403 11.941 0 6.474-5.68 11.943-12.403 11.943z" data-original="#384949"></path></g></svg>