<svg xmlns="http://www.w3.org/2000/svg" version="1.1" xmlns:xlink="http://www.w3.org/1999/xlink" xmlns:svgjs="http://svgjs.com/svgjs" width="512" height="512" x="0" y="0" viewBox="0 0 512 512" style="enable-background:new 0 0 512 512" xml:space="preserve" class=""><g><path fill="#efc984" d="M383.628 90.99h-31.664c-21.158 0-38.311 17.152-38.311 38.311v36.953l9.272 5.581h64.382V97.728z" data-original="#efc984"></path><path fill="#4a80aa" d="M453.345 348.387c0-20.941-13.801-39.376-33.894-45.275l-56.038-16.452.036-12.004h-25.063l-54.783 16.079c-19.637 5.764-33.126 23.78-33.126 44.245v87.512H453.35z" data-original="#4a80aa"></path><path fill="#407093" d="m478.878 290.734-54.763-16.077h-64.823l-.047 15.779 54.763 16.077c19.635 5.765 33.122 23.78 33.122 44.244v71.735H512v-87.514c0-20.463-13.487-38.479-33.122-44.244z" data-original="#407093"></path><path fill="#dd636e" d="m412.226 422.493-20.12-89.712H370.31l-20.12 89.712z" data-original="#dd636e"></path><path fill="#ffddce" d="M411.315 285.688v-48.362H351.14v48.362c0 16.617 30.087 18.094 30.087 18.094s30.088-1.478 30.088-18.094z" data-original="#ffddce"></path><path fill="#ffddce" d="M385.994 217.747c.939-4.118 1.312-8.344 1.312-12.567v-64.087a90.578 90.578 0 0 1-34.484-4.367l-.022-.007c-7.911-2.614-16.063 3.278-16.063 11.61v6.342c0 6.397-5.186 11.583-11.583 11.583h-11.502v18.941a8.764 8.764 0 0 0 8.764 8.764c1.527 0 2.77 1.196 2.866 2.72 1.57 24.901 19.384 45.392 42.969 50.982 8.724-7.753 15.058-18.136 17.743-29.914z" data-original="#ffddce"></path><path fill="#eabc6b" d="M432.156 113.258h-.561a5.622 5.622 0 0 1-5.622-5.622c0-9.193-7.453-16.646-16.646-16.646h-25.699v80.845h55.902l9.272-5.581v-36.35c0-9.193-7.452-16.646-16.646-16.646z" data-original="#eabc6b"></path><path fill="#ffcbbe" d="M437.3 166.254c-6.397 0-11.583-5.186-11.583-11.583v-6.339c0-8.333-8.153-14.225-16.064-11.61a90.51 90.51 0 0 1-26.024 4.527v61.985c0 4.151-.367 8.306-1.29 12.353-2.789 12.235-9.585 22.939-18.925 30.679a55.958 55.958 0 0 0 17.815 2.904c29.764 0 54.098-23.194 55.945-52.492.096-1.524 1.339-2.72 2.866-2.72a8.764 8.764 0 0 0 8.764-8.764v-18.941H437.3z" data-original="#ffcbbe"></path><g fill="#365e7d"><path d="m339.411 271.45-8.569 3.847c-4.891 2.196-6.072 8.608-2.284 12.403l23.731 23.768a8.197 8.197 0 0 0 10.972.418l18.609-15.544-31.726-23.707a10.642 10.642 0 0 0-10.733-1.185zM412.295 272.782l-30.424 23.558 17.49 14.954a8.196 8.196 0 0 0 11.005-.319l23.743-23.122c3.881-3.779 2.721-10.282-2.227-12.487l-8.735-3.892a10.651 10.651 0 0 0-10.852 1.308z" fill="#365e7d" data-original="#365e7d"></path></g><path fill="#ddb7a0" d="m453.357 501.357-.008-98.713H121.733v108.872h325.155c3.642-1.946 6.186-5.765 6.469-10.159z" data-original="#ddb7a0"></path><path fill="#d6a889" d="M447.142 402.645v97.601c-.401 6.225-5.447 11.271-11.672 11.271h55.142c11.812 0 21.388-9.576 21.388-21.388v-87.484z" data-original="#d6a889"></path><path fill="#ffddce" d="M156.415 373.705v-47.032h-58.52v47.032c0 16.16 29.26 17.596 29.26 17.596s29.26-1.436 29.26-17.596z" data-original="#ffddce"></path><path fill="#407093" d="M128.535 342.789a35.407 35.407 0 0 0 23.794-33.46 85.89 85.89 0 0 0-3.615-24.624 141.145 141.145 0 0 1-5.944-40.485v-.034c-.01-31.515-18.223-58.757-44.688-71.831-28.599 11.52-48.788 39.523-48.798 72.245v.033a137.164 137.164 0 0 1-5.778 39.353 83.429 83.429 0 0 0-3.514 23.936 34.416 34.416 0 0 0 23.128 32.524 195.29 195.29 0 0 0 40.055 9.322 200.656 200.656 0 0 0 25.36-6.979z" data-original="#407093"></path><path fill="#365e7d" d="M210.825 283.987a137.209 137.209 0 0 1-5.778-39.353v-.033c-.013-43.003-34.878-77.857-77.881-77.857a77.566 77.566 0 0 0-32.587 7.147c26.725 12.333 45.285 39.345 45.294 70.71v.033a137.164 137.164 0 0 0 5.778 39.353 83.417 83.417 0 0 1 3.514 23.935 34.415 34.415 0 0 1-23.128 32.524 195.268 195.268 0 0 1-31.458 8.061 195.275 195.275 0 0 0 96.632-8.061 34.416 34.416 0 0 0 23.128-32.524 83.497 83.497 0 0 0-3.514-23.935z" data-original="#365e7d"></path><path fill="#cbe2ff" d="M222.323 108.2V22.677c0-20.842-18.141-22.655-30.65-22.666H58.05c-12.518 0-22.666 10.148-22.666 22.666V108.2c0 12.518 10.148 22.666 22.666 22.666h137.198l5.538-.299c6.761-.365 13.181-3.537 17.178-9.002a22.558 22.558 0 0 0 4.359-13.365z" data-original="#cbe2ff"></path><path fill="#bed8fb" d="M257.386.011h-65.713c12.518 0 22.666 10.148 22.666 22.666V108.2c0 10.905-7.702 20.009-17.963 22.174a3.136 3.136 0 0 0-1.128.492h21.196c.876 0 1.716.348 2.336.968l33.928 33.928c2.519 2.519 6.827.735 6.827-2.828v-29.346c0-1.535 1.052-2.897 2.554-3.214 10.261-2.165 17.964-11.268 17.964-22.174V22.677C280.052 10.159 269.904.011 257.386.011z" data-original="#bed8fb"></path><path fill="#e28086" d="M193.965 433.851c0-19.901-11.193-29.51-32.212-34.023l-11.877-2.261c-8.541-1.626-15.123-8.06-17.197-16.173-13.626 2.332-28.616-4.101-34.716-19.298l-.069-.171-65.68 12.702C13.118 380.232 0 397.753 0 417.656v72.945c0 11.829 9.602 21.412 21.431 21.388l167.726-.344 4.7-3.604z" data-original="#e28086"></path><path fill="#dd636e" d="M244.68 511.594a9.728 9.728 0 0 0 9.652-9.728v-84.213c0-19.901-13.116-37.422-32.212-43.028l-65.705-12.511c-5.269 13.101-17.145 19.676-29.052 19.738 1.191 9.344 8.247 17.04 17.706 18.841l11.877 2.261c21.018 4.514 32.212 14.122 32.212 34.023v74.671z" data-original="#dd636e"></path><path fill="#e28086" d="m399.361 311.295-17.49-14.954-18.609 15.544a8.165 8.165 0 0 1-4.06 1.817l11.108 19.078h21.796l10.984-19.684a8.133 8.133 0 0 1-3.729-1.801z" data-original="#e28086"></path></g></svg>