<svg xmlns="http://www.w3.org/2000/svg" version="1.1" xmlns:xlink="http://www.w3.org/1999/xlink" xmlns:svgjs="http://svgjs.com/svgjs" width="512" height="512" x="0" y="0" viewBox="0 0 512 512" style="enable-background:new 0 0 512 512" xml:space="preserve"><g><path fill="#ffe177" d="m271.003 506.019 188.863-179.028a21.816 21.816 0 0 0 6.665-13.356l33.007-289.354C501.015 11.341 490.894 0 477.87 0H34.13C21.106 0 10.985 11.341 12.461 24.281l33.007 289.354a21.803 21.803 0 0 0 6.665 13.356l188.863 179.028c8.413 7.975 21.595 7.975 30.007 0z" data-original="#ffe177"></path><path fill="#ffd15b" d="M477.87 0h-20.044c13.024 0 23.144 11.341 21.668 24.281l-33.007 289.355a21.81 21.81 0 0 1-6.665 13.356L250.959 506.019a21.77 21.77 0 0 1-4.981 3.536c8.048 4.168 18.135 2.995 25.026-3.536l188.863-179.028a21.814 21.814 0 0 0 6.665-13.356L499.539 24.28C501.015 11.341 490.894 0 477.87 0z" data-original="#ffd15b"></path><path fill="#f5f8f9" d="M87.333 300.141 59.341 54.75c-.566-4.966 3.317-9.318 8.315-9.318h376.688c4.998 0 8.882 4.352 8.315 9.318l-27.991 245.391a8.366 8.366 0 0 1-2.558 5.125L261.758 457.267a8.37 8.37 0 0 1-11.515 0L89.891 305.266a8.372 8.372 0 0 1-2.558-5.125z" data-original="#f5f8f9"></path><path fill="#e8edf2" d="M444.344 45.433h-25.506c4.998 0 8.882 4.352 8.315 9.318l-27.991 245.391a8.366 8.366 0 0 1-2.558 5.125l-153.356 145.37 6.995 6.631a8.37 8.37 0 0 0 11.515 0L422.11 305.266a8.366 8.366 0 0 0 2.558-5.125L452.659 54.75c.566-4.966-3.317-9.317-8.315-9.317z" data-original="#e8edf2"></path><path fill="#7a8c98" d="M221.827 186.395a7.716 7.716 0 0 1-6.335-3.294l-17.911-25.565a7.729 7.729 0 0 1 0-8.867l17.911-25.566a7.727 7.727 0 0 1 12.656 8.868l-14.806 21.133 14.806 21.132a7.727 7.727 0 0 1-6.321 12.159zM290.174 186.395a7.727 7.727 0 0 1-6.321-12.161l14.806-21.132-14.806-21.133a7.727 7.727 0 1 1 12.656-8.868l17.911 25.566a7.729 7.729 0 0 1 0 8.867l-17.911 25.565a7.72 7.72 0 0 1-6.335 3.296zM244.264 185.171a7.674 7.674 0 0 1-3.359-.774 7.726 7.726 0 0 1-3.59-10.32l23.552-48.682a7.722 7.722 0 0 1 10.32-3.59 7.726 7.726 0 0 1 3.59 10.32l-23.552 48.682a7.724 7.724 0 0 1-6.961 4.364zM306.683 93.461H205.318a7.725 7.725 0 0 1-7.726-7.726 7.725 7.725 0 0 1 7.726-7.726h101.365a7.726 7.726 0 1 1 0 15.452z" data-original="#7a8c98"></path><path fill="#fff3be" d="M470.701 374.557H41.299C18.49 374.557 0 356.067 0 333.258v-69.566c0-22.809 18.49-41.299 41.299-41.299H470.7c22.809 0 41.299 18.49 41.299 41.299v69.566c.001 22.809-18.489 41.299-41.298 41.299z" data-original="#fff3be"></path><path fill="#fedba6" d="M470.7 222.392h-28.33c22.809 0 41.3 18.49 41.3 41.3v69.566c0 22.809-18.49 41.299-41.3 41.299h28.33c22.809 0 41.3-18.49 41.3-41.299v-69.566c0-22.81-18.49-41.3-41.3-41.3z" data-original="#fedba6"></path><path fill="#ffd15b" d="M131.047 306.2H116.47a7.726 7.726 0 1 1 0-15.452h14.577c4.268 0 7.726 3.459 7.726 7.726s-3.458 7.726-7.726 7.726zM395.531 306.2h-14.577a7.726 7.726 0 1 1 0-15.452h14.577c4.268 0 7.726 3.459 7.726 7.726s-3.458 7.726-7.726 7.726zM256 419.067a7.725 7.725 0 0 1-7.726-7.726v-9.014a7.726 7.726 0 1 1 15.452 0v9.014a7.726 7.726 0 0 1-7.726 7.726z" data-original="#ffd15b"></path><path fill="#7a8c98" d="M205.868 346.587c-8.056 0-14.975-4.449-18.552-8.047a7.727 7.727 0 0 1 10.917-10.937c.321.308 5.809 5.458 10.942 2.606 2.667-1.481 4.325-4.387 4.325-7.585v-64.501a7.725 7.725 0 0 1 7.726-7.726 7.725 7.725 0 0 1 7.726 7.726v64.501c0 8.808-4.704 16.89-12.278 21.096-3.693 2.05-7.354 2.867-10.806 2.867zM294.919 346.553c-12.967 0-25.621-5.421-33.849-14.501a7.726 7.726 0 0 1 11.45-10.376c5.348 5.901 13.721 9.425 22.398 9.425 9.036 0 15.447-5.655 16.423-11.122.975-5.462-3.432-10.425-12.09-13.619-12.443-4.59-23.488-9.505-23.952-9.712a7.627 7.627 0 0 1-1.072-.585c-7.73-5.04-11.713-13.884-10.393-23.078 1.415-9.86 8.663-17.903 18.914-20.992 20.835-6.275 38.036 7.905 38.759 8.512a7.727 7.727 0 0 1-9.912 11.855c-.207-.169-11.707-9.39-24.389-5.57-4.497 1.354-7.515 4.491-8.075 8.391-.437 3.045.718 5.861 3.104 7.636 2.512 1.103 12.069 5.247 22.366 9.046 18.994 7.006 23.795 20.52 21.954 30.831-2.43 13.601-16.029 23.859-31.636 23.859z" data-original="#7a8c98"></path></g></svg>