<svg xmlns="http://www.w3.org/2000/svg" version="1.1" xmlns:xlink="http://www.w3.org/1999/xlink" xmlns:svgjs="http://svgjs.com/svgjs" width="512" height="512" x="0" y="0" viewBox="0 0 512 512" style="enable-background:new 0 0 512 512" xml:space="preserve" class=""><g><circle cx="256" cy="256" r="256" fill="#fc4581" data-original="#fc4581" class=""></circle><path fill="#ffffff" d="M404.85 119.52v315.11a13.56 13.56 0 0 1-13.55 13.55H141.38a13.56 13.56 0 0 1-13.55-13.55V73.69a13.55 13.55 0 0 1 13.55-13.55h204.08z" data-original="#ffffff" class=""></path><path fill="#e2e1de" d="M404.85 119.52v315.11a13.56 13.56 0 0 1-13.55 13.55H372a13.57 13.57 0 0 0 13.55-13.55V119.52l-59.44-59.38h19.35z" data-original="#e2e1de" class=""></path><path fill="#c9c9c9" d="M404.85 119.52H359A13.56 13.56 0 0 1 345.46 106V60.14z" data-original="#c9c9c9" class=""></path><path fill="#4acc97" d="M112.56 118.73h128.56a7.52 7.52 0 0 1 7.52 7.52v47.57a7.52 7.52 0 0 1-7.52 7.52H105v-55.09a7.52 7.52 0 0 1 7.56-7.52z" data-original="#4acc97" class=""></path><path fill="#38c487" d="M248.64 172.87v.95a7.53 7.53 0 0 1-7.53 7.52H105v-55.09a7.52 7.52 0 0 1 7.52-7.52h3.88v19.59a34.55 34.55 0 0 0 34.6 34.55z" data-original="#38c487" class=""></path><path fill="#00b564" d="m105.04 181.34 22.79 26v-26z" data-original="#00b564" class=""></path><path fill="#e2e1de" d="M127.83 181.34h113.06v6.3a10 10 0 0 1-10 10h-103v-16.3h-.06z" data-original="#e2e1de" class=""></path><g fill="#fff"><path d="M112 173.53v-6.23a9.44 9.44 0 0 0 2.57.42 3.52 3.52 0 0 0 2.94-1.13 6.73 6.73 0 0 0 .88-4V135h-5.1v-5.8H132v5.8h-4.67v27.87c0 3.82-.93 6.64-2.78 8.48a10 10 0 0 1-7.39 2.75 24.5 24.5 0 0 1-5.16-.57zM135.28 163.58v-11.7h5.83a6.55 6.55 0 0 0 1.68 4.72 5 5 0 0 0 3.6 1.52 3.6 3.6 0 0 0 2.67-1.1 3.55 3.55 0 0 0 1.08-2.58 3.62 3.62 0 0 0-1.06-2.65 14.82 14.82 0 0 0-3.88-2.45q-6-2.86-8.08-5.06a8.19 8.19 0 0 1-2.13-5.94 8.8 8.8 0 0 1 2.81-7 9.43 9.43 0 0 1 6.4-2.47 7.3 7.3 0 0 1 6.34 3.19v-2.85h5.8v10.44h-5.8a5.85 5.85 0 0 0-1.67-3.74 4.57 4.57 0 0 0-3.24-1.32 3.83 3.83 0 0 0-2.42.77 2.4 2.4 0 0 0-1 2 3 3 0 0 0 .82 2q.81.94 4.76 2.69a38.84 38.84 0 0 1 5.84 3.07 9.85 9.85 0 0 1 3.22 3.56 10.41 10.41 0 0 1 1.18 5.05c0 3.39-1 5.94-3 7.66a10.35 10.35 0 0 1-7 2.57 8.11 8.11 0 0 1-7-3.35v2.93zM181.3 128.7q8.88 0 14 5.13a17.91 17.91 0 0 1 0 25q-5.11 5.13-14 5.13-9.21 0-14.15-5.27a17.54 17.54 0 0 1-4.94-12.38 17.18 17.18 0 0 1 5.08-12.51q5.07-5.1 14.01-5.1zm0 6.27a8.83 8.83 0 0 0-6.71 3q-2.75 3-2.75 8.69a11.72 11.72 0 0 0 2.72 8.1 8.68 8.68 0 0 0 6.74 3 8.82 8.82 0 0 0 6.71-3c1.84-2 2.76-4.84 2.76-8.58a12.11 12.11 0 0 0-2.64-8.12 8.53 8.53 0 0 0-6.83-3.06zM204.25 163.58v-5.8h4.59V135h-4.59v-5.8h14.43l12.63 21.41V135h-4.47v-5.8h15.4v5.8h-4.81v28.78h-7.65L215 138.37v19.41h4.32v5.8z" fill="#ffffff" data-original="#ffffff" class=""></path></g><rect width="192" height="22.33" x="165.94" y="215.16" fill="#00b564" rx="11.17" data-original="#00b564" class=""></rect><rect width="192" height="22.33" x="165.94" y="267.32" fill="#00b564" rx="11.17" data-original="#00b564" class=""></rect><rect width="192" height="22.33" x="165.94" y="319.49" fill="#00b564" rx="11.17" data-original="#00b564" class=""></rect><rect width="192" height="22.33" x="165.94" y="371.66" fill="#00b564" rx="11.17" data-original="#00b564" class=""></rect></g></svg>