<svg xmlns="http://www.w3.org/2000/svg" version="1.1" xmlns:xlink="http://www.w3.org/1999/xlink" xmlns:svgjs="http://svgjs.com/svgjs" width="512" height="512" x="0" y="0" viewBox="0 0 60 60" style="enable-background:new 0 0 512 512" xml:space="preserve" class=""><g><path fill="#c7dfe5" d="M47.92 28.46a1.051 1.051 0 0 0-.66-.87l-2.89-1.16a15.03 15.03 0 0 0-1.69-4.07l1.23-2.87a1.034 1.034 0 0 0-.15-1.08 17.872 17.872 0 0 0-2.18-2.17 1.034 1.034 0 0 0-1.08-.15l-2.87 1.23a14.471 14.471 0 0 0-4.07-1.69l-1.15-2.9a1.069 1.069 0 0 0-.87-.66 16.678 16.678 0 0 0-3.08 0 1.069 1.069 0 0 0-.87.66l-1.15 2.9a14.471 14.471 0 0 0-4.07 1.69l-2.87-1.23a1.034 1.034 0 0 0-1.08.15 18.616 18.616 0 0 0-2.18 2.17 1.034 1.034 0 0 0-.15 1.08l1.23 2.87a15.03 15.03 0 0 0-1.69 4.07l-2.89 1.16a1.051 1.051 0 0 0-.66.87 14.862 14.862 0 0 0 0 3.08 1.051 1.051 0 0 0 .66.87l2.89 1.16a15.03 15.03 0 0 0 1.69 4.07l-1.23 2.87a1.034 1.034 0 0 0 .15 1.08 17.189 17.189 0 0 0 2.18 2.17 1.034 1.034 0 0 0 1.08.15l2.87-1.23a14.471 14.471 0 0 0 4.07 1.69l1.15 2.9a1.069 1.069 0 0 0 .87.66 16.678 16.678 0 0 0 3.08 0 1.069 1.069 0 0 0 .87-.66l1.15-2.9a14.471 14.471 0 0 0 4.07-1.69l2.87 1.23a1.034 1.034 0 0 0 1.08-.15 17.875 17.875 0 0 0 2.18-2.17 1.034 1.034 0 0 0 .15-1.08l-1.23-2.87a15.03 15.03 0 0 0 1.69-4.07l2.89-1.16a1.051 1.051 0 0 0 .66-.87 14.415 14.415 0 0 0 0-3.08zM30 41a11 11 0 1 1 11-11 10.994 10.994 0 0 1-11 11z" data-original="#c7dfe5"></path><path fill="#2074ef" d="M43.54 54.41a1.975 1.975 0 0 1-1.12 1.8A29 29 0 0 1 7.27 12H7a2 2 0 0 1 0-4h5a2.006 2.006 0 0 1 2 2v5a2 2 0 0 1-4 0v.01A25 25 0 0 0 40.69 52.6a2 2 0 0 1 2.85 1.81zM16.46 5.59a1.975 1.975 0 0 1 1.12-1.8A29 29 0 0 1 52.73 48H53a2 2 0 0 1 0 4h-5a2.006 2.006 0 0 1-2-2v-5a2 2 0 0 1 4 0A25 25 0 0 0 19.31 7.4a2 2 0 0 1-2.85-1.81z" data-original="#2074ef" class=""></path><circle cx="30" cy="30" r="11" fill="#2a2a49" data-original="#2a2a49"></circle><g fill="#25e572"><path d="M25 33a1 1 0 0 1-.707-.293l-2-2a1 1 0 0 1 0-1.414l2-2a1 1 0 0 1 1.414 1.414L24.414 30l1.293 1.293A1 1 0 0 1 25 33zM35 33a1 1 0 0 1-.707-1.707L35.586 30l-1.293-1.293a1 1 0 0 1 1.414-1.414l2 2a1 1 0 0 1 0 1.414l-2 2A1 1 0 0 1 35 33zM29 34a1 1 0 0 1-.948-1.316l2-6a1 1 0 0 1 1.9.632l-2 6A1 1 0 0 1 29 34z" fill="#25e572" data-original="#25e572"></path></g><path fill="#a2c6cc" d="M30 42a12 12 0 1 1 12-12 12.013 12.013 0 0 1-12 12zm0-22a10 10 0 1 0 10 10 10.011 10.011 0 0 0-10-10z" data-original="#a2c6cc"></path></g></svg>