<svg xmlns="http://www.w3.org/2000/svg" version="1.1" xmlns:xlink="http://www.w3.org/1999/xlink" xmlns:svgjs="http://svgjs.com/svgjs" width="512" height="512" x="0" y="0" viewBox="0 0 512 512" style="enable-background:new 0 0 512 512" xml:space="preserve" class=""><g><path fill="#f03800" d="M512 0v120h-31V30h-90V0zM512 390v122H391v-32h90v-90zm0 0" data-original="#f03800"></path><path fill="#ff641a" d="M31 30h90V0H0v120h31zM31 390H0v122h121v-32H31zm0 0" data-original="#ff641a"></path><g fill="#7c8388"><path d="M211 90V60H61v150h150v-90h30V90zm-60 60h-30v-30h30zM391 300v-30h-30v30h-90v30h30v30h-30v30h30v60h150V300zm0 90h-30v-30h30zM271 420v30H121v-30H91v-30h30v-60H91v-30h30v-30H61v-30h150v30h-60v90h30v30h-30v30h60v-30h30v30zM301 60v150h60v30h30v-30h60V60zm90 90h-30v-30h30zM451 240v30h-60v-30zm0 0" fill="#7c8388" data-original="#7c8388" class=""></path><path d="M241 330h30v30h-30zM181 330v30h30v-60h-30zM211 270h30v30h-30zM91 330H61v60h30v-60zM61 420h30v30H61zM241 60h30v30h-30zM271 120v60h-30v-60zM361 240v30H241v-60h30v30zm0 0" fill="#7c8388" data-original="#7c8388" class=""></path></g><path fill="#575f64" d="M256 60h15v30h-15zM271 180h-15v-60h15zM256 420h15v30h-15zM256 330h15v30h-15zM361 240v30H256v-60h15v30zM301 60v150h60v30h30v-30h60V60zm90 90h-30v-30h30zM391 270v-30h60v30h-60zM391 300v-30h-30v30h-90v30h30v30h-30v30h30v60h150V300zm0 90h-30v-30h30zm0 0" data-original="#575f64" class=""></path></g></svg>