<svg xmlns="http://www.w3.org/2000/svg" version="1.1" xmlns:xlink="http://www.w3.org/1999/xlink" xmlns:svgjs="http://svgjs.com/svgjs" width="512" height="512" x="0" y="0" viewBox="0 0 512 512" style="enable-background:new 0 0 512 512" xml:space="preserve" class=""><g><linearGradient id="a" x1="256" x2="256" y1="514" y2="2" gradientTransform="matrix(1 0 0 -1 0 514)" gradientUnits="userSpaceOnUse"><stop offset="0" style="stop-color:#2AF598"></stop><stop offset="1" style="stop-color:#009EFD"></stop></linearGradient><path d="M344.354 381.58c-1.33-1.651-33.207-40.458-88.354-40.458-55.832 0-87.972 39.974-88.29 40.378l-31.42-24.756c1.79-2.271 44.687-55.622 119.71-55.622s117.92 53.352 119.71 55.622L344.29 381.5l.064.08zm92.666 55.44C485.371 388.668 512 324.38 512 256s-26.629-132.667-74.98-181.02C388.667 26.629 324.38 0 256 0S123.333 26.629 74.98 74.98C26.629 123.333 0 187.62 0 256s26.629 132.668 74.98 181.02C123.333 485.371 187.62 512 256 512s132.667-26.629 181.02-74.98zM472 256c0 119.103-96.897 216-216 216S40 375.103 40 256 136.897 40 256 40s216 96.897 216 216zm-304-43.878c17.673 0 32-14.327 32-32s-14.327-32-32-32-32 14.327-32 32 14.327 32 32 32zm176 0c17.673 0 32-14.327 32-32s-14.327-32-32-32-32 14.327-32 32 14.327 32 32 32z" style="fill:url(#a);" fill=""></path></g></svg>