<svg xmlns="http://www.w3.org/2000/svg" version="1.1" xmlns:xlink="http://www.w3.org/1999/xlink" xmlns:svgjs="http://svgjs.com/svgjs" width="512" height="512" x="0" y="0" viewBox="0 0 512 512" style="enable-background:new 0 0 512 512" xml:space="preserve" class=""><g><path fill="#8276e3" d="M256 37.763H128.07v71.94l127.93-2.61 12.765-34.665z" data-original="#8276e3"></path><path fill="#685eb5" d="M512 37.763v64.12l-256 5.21v-69.33z" data-original="#685eb5"></path><path fill="#8276e3" d="M95.896 37.764H0v63.983l95.896 7.977z" data-original="#8276e3"></path><path fill="#524a8f" d="M268.765 261.828 256 101.743l-64.05-.04c-17.65-.01-31.95-14.32-31.95-31.97-.15-17.943-14.913-32.033-31.93-31.97H95.9c-17.63.04-31.9 14.34-31.9 31.97v.02c0 17.64-14.29 31.95-31.93 31.97l-32.07.02v320.168h256z" data-original="#524a8f"></path><path fill="#342c6e" d="M512 101.883v320.029H256V101.743z" data-original="#342c6e"></path><path fill="#ffeb00" d="M60.25 152.244h30v30h-30z" data-original="#ffeb00"></path><path fill="#0dff92" d="M120.5 152.244h90.25v30H120.5z" data-original="#0dff92"></path><path fill="#2fd498" d="M301.25 152.244h90.25v30h-90.25z" data-original="#2fd498"></path><path fill="#ffbb00" d="M421.75 152.244h30v30h-30z" data-original="#ffbb00"></path><path fill="#ff7fab" d="M60.25 212.353h90.25v30H60.25z" data-original="#ff7fab"></path><path fill="#ff5b93" d="M361.5 212.353h90.25v30H361.5z" data-original="#ff5b93"></path><path fill="#9bcfff" d="M224.01 241.587v19.98c0 8.44-4.5 16.24-11.81 20.46-6.447 3.639-15.662 4.576-23.64.01l-17.3-10-32 55.42 17.28 9.98a23.63 23.63 0 0 1 11.82 20.48c-.076 7.407-3.859 15.845-11.82 20.47l-17.28 9.98 32 55.42 17.3-9.99a23.63 23.63 0 0 1 23.64 0c6.378 3.772 11.772 11.262 11.81 20.46v19.98H256l17.99-116.325L256 241.587z" data-original="#9bcfff"></path><path fill="#32a7ff" d="M287.99 241.587v19.98c0 8.44 4.5 16.24 11.81 20.46 6.447 3.639 15.662 4.576 23.64.01l17.3-10 32 55.42-17.28 9.98a23.63 23.63 0 0 0-11.82 20.48c.076 7.407 3.859 15.845 11.82 20.47l17.28 9.98-32 55.42-17.3-9.99a23.63 23.63 0 0 0-23.64 0c-6.378 3.772-11.772 11.262-11.81 20.46v19.98H256v-232.65z" data-original="#32a7ff"></path><path fill="#524a8f" d="M273.991 357.917 256 403.267c-25.05 0-45.35-20.31-45.35-45.35 0-25.05 20.3-45.36 45.35-45.36z" data-original="#524a8f"></path><path fill="#342c6e" d="M301.351 357.917c0 25.04-20.3 45.35-45.35 45.35v-90.71c25.049 0 45.35 20.31 45.35 45.36z" data-original="#342c6e"></path></g></svg>