<svg xmlns="http://www.w3.org/2000/svg" version="1.1" xmlns:xlink="http://www.w3.org/1999/xlink" xmlns:svgjs="http://svgjs.com/svgjs" width="512" height="512" x="0" y="0" viewBox="0 0 512 512" style="enable-background:new 0 0 512 512" xml:space="preserve" class=""><g><g fill="#25d9f8"><path d="M497 239.977H135.04c-8.403 0-15 6.597-15 15v59.992c0 8.398 6.597 15 15 15H497c8.402 0 15-6.602 15-15v-59.992c0-8.403-6.598-15-15-15zM407.012 119.988H135.039c-8.402 0-15 6.598-15 15v59.992c0 8.399 6.598 15 15 15h271.973c8.398 0 14.996-6.601 14.996-15v-59.992c0-8.402-6.598-15-14.996-15zM301.02 0H135.04c-8.403 0-15 6.598-15 15v59.992c0 8.399 6.597 15 15 15h165.98c8.402 0 15-6.601 15-15V15c0-8.402-6.598-15-15-15zm0 0" fill="#25d9f8" data-original="#25d9f8"></path></g><path fill="#00c0f1" d="M422.008 134.988v59.992c0 8.399-6.598 15-14.996 15H316.02v-89.992h90.992c8.398 0 14.996 6.598 14.996 15zM512 254.977v59.992c0 8.398-6.598 15-15 15H316.02v-89.992H497c8.402 0 15 6.597 15 15zm0 0" data-original="#00c0f1"></path><path fill="#ff641a" d="M118.238 397.762c-2.699-4.801-7.797-7.801-13.199-7.801H90.043V15c0-8.402-6.598-15-15-15H45.047c-8.399 0-15 6.598-15 15v374.96H15.05c-5.399 0-10.5 3-13.2 7.802-2.699 5.097-2.402 10.797.602 15.597l44.996 59.993c2.996 4.199 7.496 6.601 12.598 6.601 5.098 0 9.598-2.402 12.598-6.601l44.996-59.993c3-4.8 3.3-10.5.597-15.597zm0 0" data-original="#ff641a"></path><path fill="#f03800" d="m117.64 413.36-44.995 59.992c-3 4.199-7.5 6.601-12.598 6.601V0h15c8.398 0 14.996 6.598 14.996 15v374.96h15c5.398 0 10.496 3 13.2 7.802 2.698 5.097 2.398 10.797-.602 15.597zm0 0" data-original="#f03800"></path></g></svg>