<svg xmlns="http://www.w3.org/2000/svg" version="1.1" xmlns:xlink="http://www.w3.org/1999/xlink" xmlns:svgjs="http://svgjs.com/svgjs" width="512" height="512" x="0" y="0" viewBox="0 0 58 54" style="enable-background:new 0 0 512 512" xml:space="preserve" class=""><g><g fill="none" fill-rule="nonzero"><path fill="#26b99a" d="M12 6h27V2.13A2 2 0 0 1 42.24.56l13.77 10.87a1.994 1.994 0 0 1 0 3.14L42.24 25.44A2 2 0 0 1 39 23.87V20H2a2.006 2.006 0 0 1-2-2V8a2.006 2.006 0 0 1 2-2z" data-original="#26b99a"></path><path fill="#ff5364" d="M51 34h5a2.006 2.006 0 0 1 2 2v10a2.006 2.006 0 0 1-2 2H19v3.87a2 2 0 0 1-3.24 1.57L1.99 42.57a1.994 1.994 0 0 1 0-3.14l13.77-10.87A2 2 0 0 1 19 30.13V34z" data-original="#ff5364" class=""></path><path fill="#df4d60" d="M54 45h-3a1 1 0 0 1 0-2h2v-2a1 1 0 0 1 2 0v3a1 1 0 0 1-1 1z" data-original="#df4d60" class=""></path><path fill="#81ccb8" d="M7 17H4a1 1 0 0 1-1-1v-3a1 1 0 0 1 2 0v2h2a1 1 0 0 1 0 2z" data-original="#81ccb8" class=""></path></g></g></svg>