<svg xmlns="http://www.w3.org/2000/svg" version="1.1" xmlns:xlink="http://www.w3.org/1999/xlink" xmlns:svgjs="http://svgjs.com/svgjs" width="512" height="512" x="0" y="0" viewBox="0 0 24 24" style="enable-background:new 0 0 512 512" xml:space="preserve" class=""><g><linearGradient id="a" x1="7.842" x2="26.618" y1="28.978" y2="10.574" gradientUnits="userSpaceOnUse"><stop offset="0" stop-color="#fff33b"></stop><stop offset=".04" stop-color="#fee72e"></stop><stop offset=".117" stop-color="#fed51b"></stop><stop offset=".196" stop-color="#fdca10"></stop><stop offset=".281" stop-color="#fdc70c"></stop><stop offset=".669" stop-color="#f3903f"></stop><stop offset=".888" stop-color="#ed683c"></stop><stop offset="1" stop-color="#e93e3a"></stop></linearGradient><linearGradient xlink:href="#a" id="b" x1="8.384" x2="27.16" y1="29.531" y2="11.127"></linearGradient><linearGradient xlink:href="#a" id="c" x1="6.293" x2="25.068" y1="27.397" y2="8.993"></linearGradient><linearGradient xlink:href="#a" id="d" x1="7.889" x2="26.665" y1="29.026" y2="10.622"></linearGradient><linearGradient xlink:href="#a" id="e" x1=".394" x2="19.169" y1="21.379" y2="2.975"></linearGradient><linearGradient xlink:href="#a" id="f" x1="1.377" x2="20.153" y1="22.382" y2="3.979"></linearGradient><g data-name="Layer 2"><circle cx="21.245" cy="15.841" r="1" fill="url(#a)" data-original="url(#a)"></circle><circle cx="19.064" cy="19.062" r="1" fill="url(#b)" data-original="url(#b)"></circle><circle cx="21.997" cy="12.004" r="1" fill="url(#c)" data-original="url(#c)"></circle><circle cx="15.825" cy="21.247" r="1" fill="url(#d)" data-original="url(#d)"></circle><path fill="url(#e)" d="M12 21a9 9 0 1 1 5.646-16H16a1 1 0 0 0 0 2h4a1 1 0 0 0 1-1V2a1 1 0 0 0-2 0v1.531A10.995 10.995 0 1 0 12 23a1 1 0 0 0 0-2z" data-original="url(#e)" class=""></path><path fill="url(#f)" d="M15.707 15.707a1 1 0 0 0 0-1.414L13 11.586V6a1 1 0 0 0-2 0v6a1 1 0 0 0 .293.707l3 3a1 1 0 0 0 1.414 0z" data-original="url(#f)"></path></g></g></svg>