<svg xmlns="http://www.w3.org/2000/svg" version="1.1" xmlns:xlink="http://www.w3.org/1999/xlink" xmlns:svgjs="http://svgjs.com/svgjs" width="512" height="512" x="0" y="0" viewBox="0 0 512 512" style="enable-background:new 0 0 512 512" xml:space="preserve" class=""><g><path d="M485.972 423.691H26.03c-12.063 0-21.842-9.779-21.842-21.842V98.8c0-12.063 9.779-21.842 21.842-21.842h459.942c12.063 0 21.842 9.779 21.842 21.842v303.049c.001 12.063-9.779 21.842-21.842 21.842z" style="" fill="#ebedf2" data-original="#ebedf2" class=""></path><path d="M199.54 421.15h112.91v62.33H199.54z" style="" fill="#003666" data-original="#003666"></path><path d="M199.545 421.149v18.828h53.458c24.025 0 43.502 19.476 43.502 43.502h15.952v-62.33H199.545z" style="" fill="#00173f" data-original="#00173f"></path><path d="M4.187 329.556v72.293c0 12.063 9.779 21.843 21.842 21.843H485.97c12.063 0 21.843-9.779 21.843-21.843v-72.293H4.187z" style="" fill="#1952a5" data-original="#1952a5" class=""></path><circle cx="260.211" cy="376.62" r="15.864" style="" fill="#2aa1f2" data-original="#2aa1f2" class=""></circle><path d="M343.376 50.001H208.77c-4.333 0-7.845-3.512-7.845-7.845s3.512-7.845 7.845-7.845h134.606c4.333 0 7.845 3.512 7.845 7.845s-3.512 7.845-7.845 7.845zM268.713 83.434H208.77c-4.333 0-7.845-3.512-7.845-7.845s3.512-7.845 7.845-7.845h59.943a7.845 7.845 0 0 1 7.845 7.845 7.843 7.843 0 0 1-7.845 7.845z" fill="#000000" data-original="#000000"></path><path d="m47.484 76.957 27.558 247.677h359.826l33.375-247.677z" style="" fill="#d3d9ef" data-original="#d3d9ef"></path><path d="M434.868 329.556H75.042V15.727C75.042 7.041 82.083 0 90.769 0h328.372c8.686 0 15.727 7.041 15.727 15.727v313.829z" style="" fill="#ebedf2" data-original="#ebedf2" class=""></path><path d="M419.141 0H90.769c-8.686 0-15.727 7.041-15.727 15.727v98.888h359.826V15.727C434.868 7.041 427.827 0 419.141 0z" style="" fill="#00cf69" data-original="#00cf69" class=""></path><path d="m136.157 32.496-25.823 44.726h51.645z" style="" fill="#fbc640" data-original="#fbc640" class=""></path><path d="M331.798 44.408H197.193c-4.333 0-7.845-3.512-7.845-7.845s3.512-7.845 7.845-7.845h134.605c4.333 0 7.845 3.512 7.845 7.845s-3.512 7.845-7.845 7.845z" style="" fill="#ffffff" data-original="#ffffff"></path><path d="M403.905 167.077H290.287c-4.333 0-7.845-3.512-7.845-7.845s3.512-7.845 7.845-7.845h113.617a7.845 7.845 0 0 1 7.845 7.845 7.843 7.843 0 0 1-7.844 7.845zM403.905 201.58H290.287c-4.333 0-7.845-3.512-7.845-7.845s3.512-7.845 7.845-7.845h113.617c4.333 0 7.845 3.512 7.845 7.845s-3.511 7.845-7.844 7.845zM403.905 236.083H290.287a7.845 7.845 0 0 1-7.845-7.845 7.845 7.845 0 0 1 7.845-7.845h113.617a7.845 7.845 0 0 1 7.845 7.845 7.843 7.843 0 0 1-7.844 7.845zM403.905 270.586H290.287c-4.333 0-7.845-3.512-7.845-7.845s3.512-7.845 7.845-7.845h113.617c4.333 0 7.845 3.512 7.845 7.845s-3.511 7.845-7.844 7.845zM343.376 305.089h-53.089c-4.333 0-7.845-3.512-7.845-7.845s3.512-7.845 7.845-7.845h53.089c4.333 0 7.845 3.512 7.845 7.845s-3.512 7.845-7.845 7.845z" style="" fill="#9694af" data-original="#9694af"></path><path d="M257.135 77.843h-59.942c-4.333 0-7.845-3.512-7.845-7.845s3.512-7.845 7.845-7.845h59.942c4.333 0 7.845 3.512 7.845 7.845s-3.512 7.845-7.845 7.845z" style="" fill="#ffffff" data-original="#ffffff"></path><path d="M247.256 297.244H118.033a7.7 7.7 0 0 1-7.699-7.699V160.322a7.7 7.7 0 0 1 7.699-7.699h129.223a7.7 7.7 0 0 1 7.699 7.699v129.223a7.7 7.7 0 0 1-7.699 7.699z" style="" fill="#2aa1f2" data-original="#2aa1f2" class=""></path><path d="M254.954 289.545v-36.624c-3.482-1.46-7.281-2.552-11.351-3.008-19.971-2.234-22.649 13.486-42.052 15.06-28.676 2.326-37.018-30.861-66.901-29.044-9.706.59-17.962 4.647-24.317 9.195v44.421a7.7 7.7 0 0 0 7.699 7.699h129.222c4.254 0 7.7-3.447 7.7-7.699z" style="" fill="#ffad6a" data-original="#ffad6a"></path><circle cx="203.34" cy="202" r="16.16" style="" fill="#fbc640" data-original="#fbc640" class=""></circle><path d="M320.657 481H191.344c-16.147 0-29.261 11.999-31.118 27.27-.241 1.985 1.335 3.73 3.335 3.73H348.44c2 0 3.576-1.745 3.335-3.73-1.857-15.271-14.97-27.27-31.118-27.27z" style="" fill="#1952a5" data-original="#1952a5" class=""></path><path d="M320.657 481h-26.23c17.442 0 31.581 14 31.581 31h22.666c2.002 0 3.58-1.749 3.334-3.736C350.119 492.996 336.803 481 320.657 481z" style="" fill="#03427a" data-original="#03427a" class=""></path></g></svg>